<?xml version="1.0" encoding="UTF-8"?>
<svg version="1.1" xmlns="http://www.w3.org/2000/svg" width="512" height="512">
<path d="M0 0 C0.65274902 0.35610352 1.30549805 0.71220703 1.97802734 1.07910156 C11.07890266 6.08830269 18.61178439 11.63616794 26 19 C27.27230469 20.26263672 27.27230469 20.26263672 28.5703125 21.55078125 C49.44203174 42.59027958 62.05942303 70.71163884 62.32983398 100.53637695 C62.27221075 111.42716905 62.07979714 121.48282041 59 132 C58.76893555 132.79712402 58.53787109 133.59424805 58.29980469 134.41552734 C51.65606813 156.89977036 41.0127202 174.90777057 25 192 C22.62795377 194.63448539 20.30153542 197.3037692 18 200 C17.32839844 200.78117188 16.65679687 201.56234375 15.96484375 202.3671875 C5.71432699 214.66780761 3.82262404 224.27807702 3.97265625 239.9140625 C3.9853084 242.47525904 3.99766892 245.03645703 4.00976562 247.59765625 C4.03449851 251.60634319 4.06241561 255.61491177 4.09594727 259.62353516 C4.12640497 263.51204887 4.14400549 267.40046655 4.16015625 271.2890625 C4.18034569 273.05849716 4.18034569 273.05849716 4.20094299 274.86367798 C4.24117686 288.41043726 3.16746097 301.76819803 -6.078125 312.38671875 C-9.72713468 315.83796742 -12.9369688 318.11850444 -17.6875 319.75 C-22.10513018 321.4372893 -23.22805821 323.77495365 -25.1875 328 C-25.65800781 329.05960937 -26.12851562 330.11921875 -26.61328125 331.2109375 C-28.44832135 334.9016942 -30.24278538 336.34682557 -34 338 C-41.27489111 340.33103905 -48.27741997 340.3325147 -55.875 340.3125 C-57.09058594 340.32861328 -58.30617188 340.34472656 -59.55859375 340.36132812 C-68.26395083 340.36602357 -75.82048145 339.60234174 -83.3125 334.9375 C-85.84175084 332.17297002 -86.76413787 330.42405736 -88.1875 327.0625 C-90.70203516 321.56144574 -93.97689234 319.97287468 -99.28125 317.40625 C-107.39229174 313.21088358 -110.916083 306.32147853 -114 298 C-115.61886333 292.57032212 -115.38167413 286.87113307 -115.5625 281.25 C-115.60640869 279.97825928 -115.65031738 278.70651855 -115.69555664 277.39624023 C-115.92066096 270.41478823 -116.0291865 263.44210358 -115.9921875 256.45703125 C-115.98889938 255.75333405 -115.98561127 255.04963684 -115.98222351 254.32461548 C-115.96335014 250.92902497 -115.92912768 247.53494515 -115.87524414 244.13964844 C-115.67600268 222.79745289 -120.0482295 210.46038423 -134.5949707 195.12231445 C-158.59273246 169.78642703 -175.74040433 138.27329649 -175.35205078 102.51171875 C-174.17549159 67.06888729 -158.46954576 37.6678415 -132.96679688 13.78662109 C-128.89368722 10.08664388 -124.66916624 6.90227312 -120 4 C-118.94941406 3.34 -117.89882812 2.68 -116.81640625 2 C-80.37624936 -20.16819904 -37.16402017 -20.62505831 0 0 Z " fill="#162539" transform="translate(314,127)"/>
<path d="M0 0 C1.0828125 0.40734375 2.165625 0.8146875 3.28125 1.234375 C30.79048751 11.93241181 53.9396235 33.09458193 65.96582031 60.17480469 C76.71058375 86.39107975 77.29346125 115.45298324 66.44995117 141.87890625 C65.07102658 144.98044338 63.56290483 147.98607614 62 151 C61.27490234 152.48113281 61.27490234 152.48113281 60.53515625 153.9921875 C54.23333886 166.31651736 45.05680962 176.65333722 35.52734375 186.57421875 C22.75406291 200.09770774 15.69476769 212.27942471 15.3125 231.0625 C15.1578125 236.9715625 15.1578125 236.9715625 15 243 C4.44 243 -6.12 243 -17 243 C-17 206.7 -17 170.4 -17 133 C-5 133 -5 133 -1.625 135.625 C0 139 0 139 -0.6875 141.8125 C-1.120625 142.864375 -1.55375 143.91625 -2 145 C-2.72407297 150.9900582 -1.97661878 155.6626146 1 161 C4.84121546 165.67174853 8.14372947 167.46958361 14.1015625 168.2890625 C19.34387092 168.63134381 22.98210028 167.66523573 27.26953125 164.6015625 C31.89109557 160.32426821 33.22848826 155.62287688 33.5 149.4375 C33.27184996 144.12381206 32.32034606 141.17171684 29 137 C23.36355519 132.22127505 18.40238122 132.75108083 11.20703125 133.25 C8 133 8 133 5.82397461 131.39160156 C3.42795126 128.2499278 3.53808427 126.40536527 3.609375 122.484375 C3.62226563 121.23398438 3.63515625 119.98359375 3.6484375 118.6953125 C3.69871094 116.74238281 3.69871094 116.74238281 3.75 114.75 C3.76804687 113.43257813 3.78609375 112.11515625 3.8046875 110.7578125 C3.85183729 107.50447692 3.91763956 104.25260375 4 101 C5.11117187 100.85304688 6.22234375 100.70609375 7.3671875 100.5546875 C10.81227566 100.17539189 10.81227566 100.17539189 13.125 99.125 C13.74375 99.08375 14.3625 99.0425 15 99 C17.625 101.375 17.625 101.375 20 104 C24.39576925 106.19788463 30.2023792 105.32139969 35 105 C40.65322157 103.11559281 43.34479741 99.89660454 46.25 94.8125 C47.85224759 88.80407155 48.07295174 83.1429825 44.9375 77.625 C42.26423882 73.9566916 39.41762191 71.28279402 35 70 C29.57845545 69.2918799 24.07670129 69.04227333 19.0625 71.5 C14.03174466 75.60673905 11.03060824 79.98612264 10.1875 86.5 C10.125625 87.655 10.06375 88.81 10 90 C9.33613281 90.02578125 8.67226563 90.0515625 7.98828125 90.078125 C2.54250536 90.42792666 -1.18951798 90.69784288 -5 95 C-5.11939941 95.66547852 -5.23879883 96.33095703 -5.36181641 97.01660156 C-6 99 -6 99 -7.81005859 100.09667969 C-8.58172363 100.36899414 -9.35338867 100.64130859 -10.1484375 100.921875 C-10.98890625 101.22480469 -11.829375 101.52773437 -12.6953125 101.83984375 C-13.57960938 102.14019531 -14.46390625 102.44054687 -15.375 102.75 C-16.2515625 103.06582031 -17.128125 103.38164062 -18.03125 103.70703125 C-24.52303166 106 -24.52303166 106 -28 106 C-28 104.02 -28 102.04 -28 100 C-27.48050781 99.78085938 -26.96101563 99.56171875 -26.42578125 99.3359375 C-20.41319853 96.601935 -16.91503213 93.72118283 -13.83203125 87.73046875 C-12.79683363 84.33327093 -13.19090733 81.77035159 -13.5625 78.25 C-13.65345436 73.71185613 -13.51371727 71.6873555 -10.76953125 68.015625 C-7.88084745 65.50508199 -5.52447763 63.5091758 -2 62 C0.98817317 62.66243839 3.28289858 63.64144929 6 65 C11.87727972 65.40532964 16.81702041 64.99018053 22 62 C25.74053405 58.61129836 27.76089803 55.21244983 28.30859375 50.14453125 C28.57393638 43.28582634 28.30205571 38.91302717 23.80078125 33.5859375 C18.68962461 29.08457179 14.68257817 28.40112325 8.01171875 28.58984375 C1.85057689 29.42890976 -1.59843975 32.27500277 -5.4375 37 C-7.22685514 40.45790993 -7.10257979 43.52769124 -7.125 47.375 C-7.28778214 51.64186522 -7.57582701 53.47105701 -10.27734375 56.83984375 C-12.76832498 59.051332 -15.27520357 61.08621376 -18 63 C-19.48034764 62.52449439 -20.95925021 62.04448784 -22.4375 61.5625 C-23.26121094 61.29566406 -24.08492188 61.02882813 -24.93359375 60.75390625 C-27 60 -27 60 -28 59 C-28.48896934 55.60197257 -28.58102011 52.38837896 -28 49 C-25.25 46.6875 -25.25 46.6875 -22 45 C-17.55576696 40.18541421 -15.42306001 35.79773453 -15.625 29.12109375 C-16.45492099 24.42685317 -19.04316809 20.76810193 -22.5390625 17.609375 C-27.30099088 14.40466491 -32.42946237 13.99904402 -38 15 C-42.31842641 16.71424021 -45.19096946 18.93814741 -48 22.625 C-49.77315946 28.60941318 -50.34167786 35.15427034 -47.4375 40.875 C-45.24082684 43.69124764 -44.16785991 44.6020304 -41.25 46.3125 C-39.41796875 47.46875 -39.41796875 47.46875 -38 49 C-37.39533237 52.40717064 -37.58130121 55.57730356 -38 59 C-38.88751953 59.41958984 -38.88751953 59.41958984 -39.79296875 59.84765625 C-46.47301642 63.23671796 -50.55371023 66.66113068 -53 74 C-53.61770906 80.02266333 -53.22582772 85.76202232 -50 91 C-47.01410273 94.22045821 -43.88609136 97.24225453 -39.7734375 98.89453125 C-39.18820313 99.25933594 -38.60296875 99.62414062 -38 100 C-37.56640625 102.20703125 -37.56640625 102.20703125 -37.5625 104.8125 C-37.30900758 108.53937794 -37.07949288 109.87579237 -35 113.125 C-30.8602932 115.71231675 -27.66817552 115.86324725 -23 115 C-19.27396375 113.82421054 -15.67648113 112.52018868 -12.0390625 111.09375 C-9 110 -9 110 -6 110 C-6 114.29 -6 118.58 -6 123 C-7.02480469 123.01417969 -8.04960937 123.02835938 -9.10546875 123.04296875 C-10.46618971 123.08989016 -11.82686541 123.13813744 -13.1875 123.1875 C-13.86103516 123.19330078 -14.53457031 123.19910156 -15.22851562 123.20507812 C-19.15512341 123.37746578 -20.86744176 123.89009524 -23.92578125 126.42578125 C-26.62026634 129.7697844 -27.12537432 131.29780615 -27.15821838 135.49246216 C-27.1680072 136.43759674 -27.17779602 137.38273132 -27.18788147 138.35650635 C-27.19363693 139.39659851 -27.1993924 140.43669067 -27.20532227 141.50830078 C-27.21522186 142.60099274 -27.22512146 143.69368469 -27.23532104 144.81948853 C-27.2670031 148.44474086 -27.29171998 152.07000632 -27.31640625 155.6953125 C-27.33696999 158.20352527 -27.3579663 160.71173452 -27.37937927 163.21994019 C-27.42900433 169.1555654 -27.4742541 175.09121383 -27.51740164 181.02688873 C-27.57160175 188.44634784 -27.63256374 195.86574876 -27.69335938 203.28515625 C-27.80101418 216.52339819 -27.90244285 229.76168006 -28 243 C-31.3 243 -34.6 243 -38 243 C-38.00546844 240.89314568 -38.00546844 240.89314568 -38.01104736 238.74372864 C-38.04796782 225.5153344 -38.10547094 212.28716432 -38.18390274 199.05894947 C-38.22369841 192.25796428 -38.25608811 185.45709489 -38.27099609 178.65600586 C-38.2854005 172.0941661 -38.3205056 165.53264858 -38.36830902 158.97095299 C-38.38316109 156.46593022 -38.39104319 153.96085622 -38.39188385 151.45578957 C-38.39424364 147.9503605 -38.42124568 144.44593109 -38.45410156 140.94067383 C-38.4490712 139.90201675 -38.44404083 138.86335968 -38.43885803 137.79322815 C-38.50350266 133.34348779 -38.54952751 130.73649494 -40.90911865 126.87870789 C-44.40800633 123.73487197 -46.99050721 123.75555343 -51.625 123.4375 C-52.81351562 123.35371094 -54.00203125 123.26992187 -55.2265625 123.18359375 C-56.14179688 123.12300781 -57.05703125 123.06242188 -58 123 C-58.0093457 122.26885986 -58.01869141 121.53771973 -58.02832031 120.78442383 C-58.08212664 117.45977282 -58.16575504 114.13651322 -58.25 110.8125 C-58.26417969 109.66201172 -58.27835937 108.51152344 -58.29296875 107.32617188 C-58.32519531 106.21435547 -58.35742188 105.10253906 -58.390625 103.95703125 C-58.4220459 102.42526245 -58.4220459 102.42526245 -58.45410156 100.86254883 C-59.14059621 97.26275017 -60.43377554 95.58191392 -63 93 C-66.62473109 91.64164329 -66.62473109 91.64164329 -70 91 C-70.14486019 86.72952167 -70.23392616 82.45967167 -70.3125 78.1875 C-70.35439453 76.97255859 -70.39628906 75.75761719 -70.43945312 74.50585938 C-70.45556641 73.34248047 -70.47167969 72.17910156 -70.48828125 70.98046875 C-70.51446533 69.90692139 -70.54064941 68.83337402 -70.56762695 67.72729492 C-70 65 -70 65 -67.59448242 63.1262207 C-65 62 -65 62 -63 62 C-59.71800795 55.94093775 -57.12629786 49.98961709 -58 43 C-60.21388699 36.67970972 -63.35240769 33.08433846 -69.1875 29.75 C-74.48355779 28.33771792 -79.43493097 27.85734252 -84.54296875 30.1328125 C-89.15733574 33.00832342 -92.47549717 35.61342334 -94 41 C-94.64846015 47.2872441 -94.7014941 52.63921544 -91 58 C-87.66404725 61.86268214 -85.88684108 63.04526357 -81 65 C-81 73.58 -81 82.16 -81 91 C-86 90 -86 90 -88.44140625 88.9609375 C-93.1592428 87.18904774 -98.04303407 87.46193043 -103 88 C-107.88949139 90.270121 -110.76263748 93.09501294 -113 98 C-113.73935449 103.92238039 -113.89306833 109.11463352 -111.3125 114.5625 C-106.88830557 119.22584008 -103.36816798 122.09204391 -96.8125 122.3125 C-91.80834093 122.23099904 -87.99728227 121.04770164 -84 118 C-79.74193147 112.54093778 -79.37444637 107.83364617 -79 101 C-75.37 101 -71.74 101 -68 101 C-67.81080051 105.21043952 -67.67218055 109.41237141 -67.5625 113.625 C-67.47452148 115.40970703 -67.47452148 115.40970703 -67.38476562 117.23046875 C-67.21812429 125.75298259 -67.21812429 125.75298259 -69.36083984 129.17041016 C-72.26220359 131.90276243 -74.31194998 132.90662178 -78.28125 133.4453125 C-79.3434375 133.33960938 -80.405625 133.23390625 -81.5 133.125 C-87.50850873 132.8559623 -90.33948769 133.13276638 -95 137 C-99.18070442 142.14548237 -99.63729283 146.56338873 -99.375 153.12890625 C-98.71785316 158.16018676 -97.1452281 161.02134255 -93.33984375 164.53125 C-88.68977442 167.96867291 -84.41540342 168.766721 -78.6875 168.48828125 C-73.19047242 167.48954804 -69.39753771 164.84835633 -66.0625 160.4375 C-63.36266535 154.24376168 -63.18179064 147.91487085 -65 141.4375 C-65.33 140.633125 -65.66 139.82875 -66 139 C-63.79617382 136.47274541 -61.84927104 135.0412688 -59 133 C-55.37 133 -51.74 133 -48 133 C-48 169.3 -48 205.6 -48 243 C-58.89 243 -69.78 243 -81 243 C-81.1875 230.75 -81.1875 230.75 -81.20776367 226.96777344 C-81.6888222 209.41809659 -91.33214909 197.64999739 -102.80859375 185.421875 C-111.72764366 175.89874602 -119.63648957 166.45145233 -126 155 C-126.53109375 154.08347656 -127.0621875 153.16695312 -127.609375 152.22265625 C-140.98186163 127.64898881 -143.76184681 97.70571495 -136 71 C-126.9731816 42.32458064 -106.6809221 19.08192686 -80.3359375 4.98828125 C-76.64009848 3.10854392 -72.85518704 1.52065711 -69 0 C-68.38511719 -0.2568457 -67.77023438 -0.51369141 -67.13671875 -0.77832031 C-47.53754729 -8.68088479 -19.36383511 -8.23415418 0 0 Z " fill="#7ED8F9" transform="translate(291,129)"/>
<path d="M0 0 C3.90955292 2.04267861 6.50569897 4.6455957 8.94921875 8.265625 C9.36171875 8.86375 9.77421875 9.461875 10.19921875 10.078125 C11.94895486 15.181522 11.4983034 19.66303075 9.26171875 24.453125 C6.75204176 28.9741034 3.96831551 32.59259275 -1.05078125 34.265625 C-1.05078125 37.565625 -1.05078125 40.865625 -1.05078125 44.265625 C1.91921875 45.255625 4.88921875 46.245625 7.94921875 47.265625 C14.44984159 42.94265348 14.44984159 42.94265348 17.59375 36.12109375 C17.66424947 33.8781663 17.71361992 31.63447829 17.7421875 29.390625 C18.11469992 23.76779595 20.64465829 20.44215433 24.63671875 16.671875 C29.43712131 13.07157308 34.12698877 12.45340524 40.04296875 12.71484375 C44.78786682 13.61407847 47.64919443 15.84660942 50.94921875 19.265625 C51.77421875 20.11125 52.59921875 20.956875 53.44921875 21.828125 C55.99631797 27.66522739 56.19160143 34.42553308 54.21875 40.5234375 C51.64429106 45.3781315 48.08135415 48.31800926 43.13671875 50.515625 C36.2095557 52.14554572 32.31083043 51.44643084 25.94921875 48.265625 C22.1333562 49.67550193 19.49370151 52.32328047 16.53515625 55.0234375 C14.94921875 56.265625 14.94921875 56.265625 12.94921875 56.265625 C13.27921875 57.255625 13.60921875 58.245625 13.94921875 59.265625 C14.65298183 66.4070897 14.33311072 72.39479891 9.94921875 78.265625 C6.47214416 82.03932207 3.27714145 84.94272059 -2.05078125 85.265625 C-2.38078125 86.585625 -2.71078125 87.905625 -3.05078125 89.265625 C-3.05078125 87.615625 -3.05078125 85.965625 -3.05078125 84.265625 C-2.39078125 84.265625 -1.73078125 84.265625 -1.05078125 84.265625 C-1.07140625 83.316875 -1.09203125 82.368125 -1.11328125 81.390625 C-1.05078125 78.265625 -1.05078125 78.265625 -0.05078125 76.265625 C0.93921875 76.265625 1.92921875 76.265625 2.94921875 76.265625 C2.94921875 75.605625 2.94921875 74.945625 2.94921875 74.265625 C1.95921875 74.61625 0.96921875 74.966875 -0.05078125 75.328125 C-4.17515662 76.46731739 -7.96469393 76.6409812 -12.05078125 75.265625 C-15.88137392 72.9333181 -18.58067158 70.70729465 -19.98828125 66.390625 C-20.00890625 65.689375 -20.02953125 64.988125 -20.05078125 64.265625 C-22.03078125 64.760625 -22.03078125 64.760625 -24.05078125 65.265625 C-24.05078125 64.275625 -24.05078125 63.285625 -24.05078125 62.265625 C-25.04078125 62.760625 -25.04078125 62.760625 -26.05078125 63.265625 C-26.70633244 65.79295735 -26.70633244 65.79295735 -27.05078125 68.265625 C-27.38078125 68.265625 -27.71078125 68.265625 -28.05078125 68.265625 C-28.60117241 61.66093111 -27.93247663 56.75271291 -24.05078125 51.265625 C-20.65286556 47.50501045 -16.950046 45.54876577 -12.05078125 44.265625 C-12.06384927 40.84180318 -12.23456207 37.5989588 -13.05078125 34.265625 C-15.79125984 31.85529933 -15.79125984 31.85529933 -19.05078125 30.265625 C-23.7878654 25.01642365 -24.42029346 20.94428477 -24.3203125 14.0546875 C-23.83452801 9.02787409 -22.05893338 6.0840669 -18.35546875 2.73046875 C-12.73790065 -1.35193398 -6.60876771 -2.36656825 0 0 Z " fill="#18283B" transform="translate(265.05078125,143.734375)"/>
<path d="M0 0 C10.72458434 28.35593984 13.23771089 57.36536471 0.5625 85.875 C-0.5736529 88.28219153 -1.77382558 90.63543098 -3 93 C-3.48339844 93.98742187 -3.96679688 94.97484375 -4.46484375 95.9921875 C-10.76666114 108.31651736 -19.94319038 118.65333722 -29.47265625 128.57421875 C-42.24593709 142.09770774 -49.30523231 154.27942471 -49.6875 173.0625 C-49.790625 177.001875 -49.89375 180.94125 -50 185 C-60.56 185 -71.12 185 -82 185 C-82 179.72 -82 174.44 -82 169 C-76.06 168.67 -70.12 168.34 -64 168 C-63.731875 166.55625 -63.46375 165.1125 -63.1875 163.625 C-59.52749571 145.72607491 -52.52803237 133.62754226 -39.79443359 120.80957031 C-26.50075022 107.40374975 -16.76935072 93.74687627 -10 76 C-9.72462402 75.28021973 -9.44924805 74.56043945 -9.16552734 73.81884766 C-1.86607482 53.73276796 -1.98349223 29.06119257 -10.11328125 9.29296875 C-11.14175052 6.6334469 -11.37193614 4.82671465 -11 2 C-8.58160468 -2.53449122 -4.31912809 -0.63567813 0 0 Z " fill="#2596E1" transform="translate(356,187)"/>
<path d="M0 0 C3.625 1.125 3.625 1.125 4.7265625 2.71459961 C5.02304688 3.37468018 5.31953125 4.03476074 5.625 4.71484375 C6.12652588 5.79910645 6.12652588 5.79910645 6.63818359 6.90527344 C6.96383301 7.6377832 7.28948242 8.37029297 7.625 9.125 C8.21826658 10.40117948 8.81451939 11.6759759 9.4140625 12.94921875 C9.85794312 13.89293335 9.85794312 13.89293335 10.31079102 14.85571289 C16.54994198 27.85461982 24.90498073 37.57962149 35.14428711 47.60302734 C48.81957991 61.09868041 55.03184582 75.38926749 58.625 94.125 C64.565 94.455 70.505 94.785 76.625 95.125 C76.625 64.105 76.625 33.085 76.625 1.125 C76.955 1.125 77.285 1.125 77.625 1.125 C77.625 37.425 77.625 73.725 77.625 111.125 C66.735 111.125 55.845 111.125 44.625 111.125 C44.4375 98.875 44.4375 98.875 44.41723633 95.09277344 C43.9361778 77.54309659 34.29285091 65.77499739 22.81640625 53.546875 C-4.66940943 24.19947021 -4.66940943 24.19947021 -7.375 7.125 C-5.96491431 2.56933853 -5.07858956 0.18809591 0 0 Z " fill="#2794DD" transform="translate(165.375,260.875)"/>
<path d="M0 0 C0.76411194 -0.00139984 1.52822388 -0.00279968 2.31549072 -0.00424194 C13.84759705 0.01319006 23.9043842 0.87131179 34.625 5.4375 C35.800625 5.89125 36.97625 6.345 38.1875 6.8125 C42.26907331 8.42972716 45.96735049 9.99906699 49.625 12.4375 C49.9375 15.9375 49.9375 15.9375 49.625 19.4375 C48.965 20.0975 48.305 20.7575 47.625 21.4375 C42.43820477 21.1192917 38.29196508 19.63131933 33.5625 17.5625 C12.34567029 8.81108084 -10.67261572 8.7207134 -31.96875 17.23828125 C-50.95915522 25.15962285 -67.11163982 36.26232932 -76.43359375 55.0859375 C-78.375 57.4375 -78.375 57.4375 -81.97265625 57.9140625 C-85.375 57.4375 -85.375 57.4375 -87.375 55.4375 C-88.03142658 47.56038102 -84.51222004 43.26180433 -79.71875 37.45874023 C-78.28580177 35.77131543 -76.83369443 34.1026591 -75.375 32.4375 C-74.80652344 31.75558594 -74.23804688 31.07367188 -73.65234375 30.37109375 C-61.05657186 16.43177286 -41.18969483 7.17869678 -23.375 2.4375 C-22.314021 2.09887939 -21.25304199 1.76025879 -20.15991211 1.41137695 C-13.55495593 -0.28811155 -6.78165632 -0.00117709 0 0 Z " fill="#F6FBFB" transform="translate(256.375,123.5625)"/>
<path d="M0 0 C31.68 0 63.36 0 96 0 C96 3.96 96 7.92 96 12 C64.32 12 32.64 12 0 12 C0 8.04 0 4.08 0 0 Z " fill="#7486AB" transform="translate(210,405)"/>
<path d="M0 0 C31.68 0 63.36 0 96 0 C96 3.96 96 7.92 96 12 C64.32 12 32.64 12 0 12 C0 8.04 0 4.08 0 0 Z " fill="#6F81A6" transform="translate(210,383)"/>
<path d="M0 0 C28.71 0 57.42 0 87 0 C85.82687933 4.69248268 84.68104863 5.94551284 81 9 C73.8973357 12.45720045 67.36594626 12.43706826 59.55859375 12.3984375 C58.27694839 12.40130768 56.99530304 12.40417786 55.67481995 12.40713501 C52.97426386 12.41153487 50.27400734 12.40520264 47.57348633 12.39111328 C44.12820109 12.37400498 40.68361632 12.38388702 37.23835659 12.40183067 C33.92838081 12.41533201 30.61858937 12.4058556 27.30859375 12.3984375 C25.46460243 12.40754654 25.46460243 12.40754654 23.58335876 12.4168396 C15.66690006 12.35201708 10.3363727 11.89152301 4.1875 6.5625 C2 4 2 4 0 0 Z " fill="#4E5F80" transform="translate(214,426)"/>
<path d="M0 0 C3.240671 1.5057137 5.53044736 3.44140099 8 6 C9.2375 7.2684375 9.2375 7.2684375 10.5 8.5625 C13.04709922 14.39960239 13.24238268 21.15990808 11.26953125 27.2578125 C8.69507231 32.1125065 5.1321354 35.05238426 0.1875 37.25 C-3.80712645 38.18991211 -6.89539346 38.33644316 -11 38 C-13 36.5 -13 36.5 -14 35 C-13.34 35 -12.68 35 -12 35 C-11.67 34.01 -11.34 33.02 -11 32 C-7.4375 30.3125 -7.4375 30.3125 -4 29 C-4 28.34 -4 27.68 -4 27 C-3.360625 26.71125 -2.72125 26.4225 -2.0625 26.125 C0.15206079 25.17176549 0.15206079 25.17176549 1 23 C1.06996014 21.29297265 1.08440154 19.58331997 1.0625 17.875 C1.05347656 16.96492188 1.04445313 16.05484375 1.03515625 15.1171875 C1.02355469 14.41851562 1.01195312 13.71984375 1 13 C-1.475 12.01 -1.475 12.01 -4 11 C-4 10.01 -4 9.02 -4 8 C-6.31 8 -8.62 8 -11 8 C-11.309375 7.21625 -11.61875 6.4325 -11.9375 5.625 C-12.92875038 3.07669872 -12.92875038 3.07669872 -14 1 C-9.75222866 -1.12388567 -4.60061932 -0.60534465 0 0 Z " fill="#1B293F" transform="translate(308,157)"/>
<path d="M0 0 C2 3 2 3 2.00390625 5.3203125 C0.5800867 9.12085806 -2.07037605 11.28182591 -5.0625 13.875 C-5.65160156 14.4009375 -6.24070312 14.926875 -6.84765625 15.46875 C-8.55604821 16.98981828 -10.27672457 18.49584234 -12 20 C-12.81339844 20.72445312 -13.62679688 21.44890625 -14.46484375 22.1953125 C-15.75605934 23.34030598 -17.05592508 24.47567648 -18.3671875 25.59765625 C-19.81703613 26.84286118 -21.22450215 28.13703772 -22.625 29.4375 C-25.63514073 31.41785575 -27.46403659 31.47146179 -31 31 C-33 29 -33 29 -33.5 26.3125 C-32.46530973 19.45767694 -26.28161705 15.20011873 -21.2265625 10.90625 C-17.78077931 7.95617597 -14.45072815 4.879148 -11.1015625 1.8203125 C-7.22274892 -1.53940335 -4.96366568 -1.06364265 0 0 Z " fill="#F7B65B" transform="translate(396,126)"/>
<path d="M0 0 C3.94935194 1.29113429 5.62546053 3.11124149 8.40625 6.10546875 C10.22550683 8.03650195 12.11738451 9.76723663 14.125 11.5 C14.78371094 12.07492187 15.44242187 12.64984375 16.12109375 13.2421875 C17.63756466 14.53883969 19.17374677 15.81258822 20.72265625 17.0703125 C26.94664747 22.2586158 26.94664747 22.2586158 28.5 26.375 C28.25 29.0625 28.25 29.0625 27.25 30.9375 C23.90107148 32.82127229 22.04458242 32.74676896 18.25 32.0625 C16.02556622 30.30074844 14.19329819 28.36933648 12.28125 26.2734375 C10.38990179 24.21477772 8.44506253 22.42752309 6.3125 20.625 C4.95536862 19.44088935 3.60140442 18.25314256 2.25 17.0625 C1.41210938 16.32773437 0.57421875 15.59296875 -0.2890625 14.8359375 C-1.53816406 13.67964844 -1.53816406 13.67964844 -2.8125 12.5 C-3.58722656 11.79746094 -4.36195313 11.09492188 -5.16015625 10.37109375 C-6.75 8.0625 -6.75 8.0625 -6.68359375 4.91015625 C-5.43098681 1.08944302 -4.02280642 0.09142742 0 0 Z " fill="#F5B159" transform="translate(369.75,307.9375)"/>
<path d="M0 0 C3.6746456 1.57078661 6.07196824 4.57510668 8.7578125 7.45703125 C10.79585903 9.62531564 12.8808851 11.56177389 15.14453125 13.48828125 C16.43715123 14.61218577 17.72882513 15.73717935 19.01953125 16.86328125 C19.69757813 17.44980469 20.375625 18.03632813 21.07421875 18.640625 C25.88184107 23.05243905 25.88184107 23.05243905 26.58203125 27.17578125 C26.01953125 29.86328125 26.01953125 29.86328125 24.01953125 31.86328125 C21.39453125 32.42578125 21.39453125 32.42578125 18.01953125 31.86328125 C15.06776352 29.83631629 12.58944403 27.34661896 10.01953125 24.86328125 C8.35787337 23.35773454 6.69103326 21.85789117 5.01953125 20.36328125 C3.77042969 19.22246094 3.77042969 19.22246094 2.49609375 18.05859375 C0.90770046 16.65058581 -0.72079465 15.28587497 -2.39453125 13.98046875 C-7.83006362 9.69734607 -7.83006362 9.69734607 -8.66796875 5.05078125 C-7.59766578 0.08846747 -4.80001048 -0.83873867 0 0 Z " fill="#F4B15C" transform="translate(126.98046875,125.13671875)"/>
<path d="M0 0 C2.5625 1.125 2.5625 1.125 4.5625 4.125 C4.44030192 9.02921641 1.91700342 11.21930071 -1.5 14.5 C-1.99516113 14.97969238 -2.49032227 15.45938477 -3.00048828 15.95361328 C-6.47688262 19.29522012 -10.04971639 22.51611521 -13.73828125 25.62109375 C-15.67539363 27.27059113 -15.67539363 27.27059113 -18 30.0625 C-20.4375 32.125 -20.4375 32.125 -24.125 32.5625 C-27.4375 32.125 -27.4375 32.125 -29.4375 30.125 C-29.875 27.3125 -29.875 27.3125 -29.4375 24.125 C-27.83266345 22.39871636 -26.15311946 20.74123185 -24.4375 19.125 C-23.50067998 18.17370917 -22.56845963 17.21786921 -21.640625 16.2578125 C-5.95525376 0.21655468 -5.95525376 0.21655468 0 0 Z " fill="#F9B657" transform="translate(148.4375,307.875)"/>
<path d="M0 0 C3 0.625 3 0.625 4.66040039 2.74584961 C6.96219423 7.69300738 6.48090692 12.7979396 6.44604492 18.17260742 C6.43750736 20.18576444 6.46636926 22.19610527 6.49804688 24.20898438 C6.49740234 25.48193359 6.49675781 26.75488281 6.49609375 28.06640625 C6.49794678 29.22857666 6.4997998 30.39074707 6.50170898 31.58813477 C5.89829105 35.24064849 4.95920483 36.45625169 2 38.625 C-1.125 38.5625 -1.125 38.5625 -4 37.625 C-7.1515165 32.89772525 -6.33388076 27.84508398 -6.31567383 22.28320312 C-6.31252149 20.26376999 -6.33595198 18.24581375 -6.36132812 16.2265625 C-6.36197266 14.9478125 -6.36261719 13.6690625 -6.36328125 12.3515625 C-6.36626221 11.18189941 -6.36924316 10.01223633 -6.37231445 8.80712891 C-5.82296298 4.11188491 -4.84344535 1.00905112 0 0 Z " fill="#F7B356" transform="translate(258,61.375)"/>
<path d="M0 0 C28.05 0 56.1 0 85 0 C84.67 0.99 84.34 1.98 84 3 C83.34 3 82.68 3 82 3 C82 3.66 82 4.32 82 5 C54.94 5 27.88 5 0 5 C0 3.35 0 1.7 0 0 Z " fill="#C2CFE0" transform="translate(210,383)"/>
<path d="M0 0 C27.72 0 55.44 0 84 0 C82 4 82 4 81 5 C78.47458998 5.09504251 75.97662874 5.12557158 73.45092773 5.11352539 C72.26564987 5.11374443 72.26564987 5.11374443 71.056427 5.1139679 C68.43212178 5.11326857 65.80788664 5.10547527 63.18359375 5.09765625 C61.36898335 5.09579214 59.55437244 5.0943682 57.73976135 5.09336853 C52.9540977 5.08954279 48.1684642 5.07971204 43.3828125 5.06866455 C38.50325936 5.05845163 33.62370136 5.05387117 28.74414062 5.04882812 C19.16274714 5.03808982 9.58137607 5.02101273 0 5 C0 3.35 0 1.7 0 0 Z " fill="#C0CDE1" transform="translate(210,405)"/>
<path d="M0 0 C0.72252457 -0.0066568 1.44504913 -0.0133136 2.18946838 -0.02017212 C3.71849011 -0.03030212 5.24755608 -0.03498903 6.77661133 -0.03466797 C9.11678897 -0.03903986 11.45507836 -0.07534716 13.79492188 -0.11328125 C15.27994146 -0.11914967 16.76497001 -0.12311889 18.25 -0.125 C18.95007675 -0.13937103 19.6501535 -0.15374207 20.3714447 -0.16854858 C23.593186 -0.13823647 25.2732089 -0.04509241 27.69946289 2.16552734 C28.69140625 4.3359375 28.69140625 4.3359375 28.00390625 7.5234375 C26.69140625 10.3359375 26.69140625 10.3359375 24.69140625 11.3359375 C20.2839272 11.54757902 15.87268555 11.52173391 11.46069336 11.52124023 C9.26591573 11.52342554 7.07164171 11.54158256 4.87695312 11.56054688 C3.48307464 11.56348115 2.08919376 11.56546572 0.6953125 11.56640625 C-0.57497803 11.57051514 -1.84526855 11.57462402 -3.15405273 11.57885742 C-6.30859375 11.3359375 -6.30859375 11.3359375 -9.30859375 9.3359375 C-9.62109375 5.8359375 -9.62109375 5.8359375 -9.30859375 2.3359375 C-6.49016991 -0.48248634 -3.77446228 0.01196497 0 0 Z " fill="#F9B85A" transform="translate(397.30859375,229.6640625)"/>
<path d="M0 0 C3.6578218 2.03993908 5.66946174 3.50419262 8 7 C8.72517392 11.50282411 8.60000036 14.99285654 6.25 18.9375 C2.55740536 22.32237842 1.21464506 23.01928008 -3.9375 22.9375 C-7.027108 22.42448673 -8.23666806 21.8388643 -10.9375 20 C-13.64637061 16.05982456 -14.71823527 12.78279396 -14 8 C-10.5734753 2.09144139 -6.91943679 -0.66533046 0 0 Z " fill="#F8BD67" transform="translate(261,197)"/>
<path d="M0 0 C1.78760742 0.04060547 1.78760742 0.04060547 3.61132812 0.08203125 C4.74634766 0.12199219 5.88136719 0.16195312 7.05078125 0.203125 C8.08501221 0.23567383 9.11924316 0.26822266 10.18481445 0.30175781 C11.01070068 0.44967773 11.83658691 0.59759766 12.6875 0.75 C14.83512184 3.97143276 15.248568 5.0095467 14.6875 8.75 C12.32385513 11.17006853 10.914166 11.72329736 7.52709961 12.12231445 C6.31030518 12.1193335 5.09351074 12.11635254 3.83984375 12.11328125 C2.86018394 12.11402901 2.86018394 12.11402901 1.86073303 12.11479187 C0.48484238 12.11245844 -0.89105311 12.10277298 -2.2668457 12.08618164 C-4.37164459 12.06253769 -6.47517969 12.06563177 -8.58007812 12.07226562 C-18.89351089 12.02932607 -18.89351089 12.02932607 -22.3125 9.75 C-22.625 6.25 -22.625 6.25 -22.3125 2.75 C-17.20721222 -2.35528778 -6.63426133 -0.24071536 0 0 Z " fill="#F5B25A" transform="translate(113.3125,229.25)"/>
<path d="M0 0 C0.33 0 0.66 0 1 0 C1 27.72 1 55.44 1 84 C-2.3 84 -5.6 84 -9 84 C-9 57.6 -9 31.2 -9 4 C-8.67 4 -8.34 4 -8 4 C-8 15.22 -8 26.44 -8 38 C-7.34 38 -6.68 38 -6 38 C-6.16298584 38.71567139 -6.32597168 39.43134277 -6.49389648 40.16870117 C-6.99192071 42.95480197 -7.1141835 45.47462208 -7.09765625 48.30078125 C-7.09443359 49.27724609 -7.09121094 50.25371094 -7.08789062 51.25976562 C-7.07951172 52.26716797 -7.07113281 53.27457031 -7.0625 54.3125 C-7.05798828 55.33923828 -7.05347656 56.36597656 -7.04882812 57.42382812 C-7.03708184 59.94927882 -7.02065565 62.47460905 -7 65 C-6.34 65.33 -5.68 65.66 -5 66 C-3.515 65.505 -3.515 65.505 -2 65 C-0.73536411 57.88642312 -0.45797948 50.7263911 -1.5 43.5625 C-2.34683358 37.52881072 -2.94412726 30.83238179 -1 25 C-0.85060226 23.08234406 -0.75189717 21.16053478 -0.68359375 19.23828125 C-0.64169922 18.12001953 -0.59980469 17.00175781 -0.55664062 15.84960938 C-0.51732422 14.68236328 -0.47800781 13.51511719 -0.4375 12.3125 C-0.39431641 11.13365234 -0.35113281 9.95480469 -0.30664062 8.74023438 C-0.20048824 5.82694117 -0.09843758 2.91356243 0 0 Z " fill="#6FCCF3" transform="translate(262,288)"/>
<path d="M0 0 C6.37448933 1.60410669 14.34772718 3.72272718 19.0625 8.4375 C19.3125 11.4375 19.3125 11.4375 19.0625 14.4375 C17.0625 16.4375 17.0625 16.4375 15.13671875 16.58984375 C7.4633982 15.89911931 -2.332573 14.042427 -7.9375 8.4375 C-7.75 4.9375 -7.75 4.9375 -6.9375 1.4375 C-3.9375 -0.5625 -3.9375 -0.5625 0 0 Z " fill="#7ECEEE" transform="translate(399.9375,275.5625)"/>
<path d="M0 0 C0 3.96 0 7.92 0 12 C-31.68 12 -63.36 12 -96 12 C-96 9.69 -96 7.38 -96 5 C-95.67 5 -95.34 5 -95 5 C-95 6.98 -95 8.96 -95 11 C-71.24 11 -47.48 11 -23 11 C-22.67 10.01 -22.34 9.02 -22 8 C-20.75 6.3125 -20.75 6.3125 -19 5 C-16.3125 4.8125 -16.3125 4.8125 -14 5 C-14 4.34 -14 3.68 -14 3 C-10.61992362 -1.764408 -5.26050274 -0.1856648 0 0 Z " fill="#5C6F92" transform="translate(306,383)"/>
<path d="M0 0 C1 1 1 1 1.25 4.375 C1 8 1 8 -0.0546875 9.55859375 C-2.89475484 11.662981 -6.04618823 12.62395107 -9.375 13.6875 C-10.035 13.91244141 -10.695 14.13738281 -11.375 14.36914062 C-15.00129057 15.55743704 -18.18028195 16.39104975 -22 16 C-23.8125 14.8125 -23.8125 14.8125 -25 13 C-25.5 10.5625 -25.5 10.5625 -25 8 C-21.37669646 4.57236835 -17.72773101 2.86414654 -13.0625 1.1875 C-11.87785156 0.74792969 -10.69320312 0.30835938 -9.47265625 -0.14453125 C-5.8261694 -1.04282216 -3.60053245 -0.96049971 0 0 Z " fill="#7ACBEB" transform="translate(122,276)"/>
<path d="M0 0 C2.41473765 2.1031586 2.93267863 3.32678629 3.25 6.5 C1.16702227 10.66595545 -2.78193469 11.48615447 -7 13 C-7.79921875 13.30164063 -8.5984375 13.60328125 -9.421875 13.9140625 C-17.33359539 16.75484801 -17.33359539 16.75484801 -21 16 C-22.875 14.3125 -22.875 14.3125 -24 12 C-23.9375 9.4375 -23.9375 9.4375 -23 7 C-19.87428016 4.14640165 -16.6391032 3.03357335 -12.625 1.8125 C-10.97371094 1.29623047 -10.97371094 1.29623047 -9.2890625 0.76953125 C-6.02848629 0.00666485 -3.33289427 -0.26932479 0 0 Z " fill="#7AD1F0" transform="translate(416,177)"/>
<path d="M0 0 C8.38836188 0.2082889 15.3268905 2.74073249 23 6 C24.31386225 12.3304272 24.31386225 12.3304272 23.0625 15 C16.78727015 18.04253568 8.15493799 13.58428362 1.9765625 11.546875 C-1 10 -1 10 -2.5 7.50390625 C-3 5 -3 5 -1.625 2.1875 C-1.08875 1.465625 -0.5525 0.74375 0 0 Z " fill="#79CDEE" transform="translate(100,177)"/>
<path d="M0 0 C1.3921875 0.3403125 1.3921875 0.3403125 2.8125 0.6875 C4.57007038 4.41940778 5.06031366 6.80523361 3.765625 10.66796875 C3.21696251 12.07787308 2.6486711 13.48027272 2.0625 14.875 C1.7840625 15.58591797 1.505625 16.29683594 1.21875 17.02929688 C-0.0263316 20.15081041 -1.31845954 22.8839393 -3.1875 25.6875 C-6.31356798 26.08657251 -8.33261207 26.15630951 -11.125 24.625 C-12.84027444 21.49714661 -12.10882553 18.96209072 -11.1875 15.6875 C-5.74449909 -0.56318618 -5.74449909 -0.56318618 0 0 Z " fill="#7ED1EF" transform="translate(312.1875,73.3125)"/>
<path d="M0 0 C3.65000736 0.80122113 4.45212334 2.52372121 6.5625 5.5625 C8.08203125 8.9375 8.08203125 8.9375 9.375 12.5625 C9.81457031 13.75875 10.25414062 14.955 10.70703125 16.1875 C11.56530282 19.57355769 11.69888443 21.29903703 10.5625 24.5625 C8.5625 26.5625 8.5625 26.5625 5.25 26.9375 C1.5625 25.5625 1.5625 25.5625 0.0625 23.1328125 C-1.28564478 19.97911668 -2.40918658 16.8340454 -3.4375 13.5625 C-3.71980469 12.6859375 -4.00210938 11.809375 -4.29296875 10.90625 C-5.25750914 7.3988304 -5.79064207 5.41419558 -4.375 2 C-2.4375 0.5625 -2.4375 0.5625 0 0 Z " fill="#7DD1F1" transform="translate(204.4375,72.4375)"/>
<path d="M0 0 C4.02590716 -0.41820365 7.94387531 -0.12945079 12 0 C12 3.96 12 7.92 12 12 C-19.68 12 -51.36 12 -84 12 C-84 9.69 -84 7.38 -84 5 C-83.67 5 -83.34 5 -83 5 C-83 6.98 -83 8.96 -83 11 C-73.27289248 10.91568444 -63.54595051 10.82083549 -53.8190794 10.71247292 C-49.30267608 10.66249018 -44.78629638 10.61616036 -40.26977539 10.578125 C-35.91248951 10.5412971 -31.55540028 10.49494406 -27.19828224 10.44193649 C-25.53451798 10.42337924 -23.87071155 10.40827621 -22.20688438 10.39665604 C-19.87949792 10.37981619 -17.55256312 10.35078727 -15.2253418 10.31884766 C-14.18956245 10.31560738 -14.18956245 10.31560738 -13.13285828 10.31230164 C-9.53336742 10.24904004 -8.08687442 10.05791628 -5 8 C-3.95107762 6.36368108 -2.95093297 4.69514137 -2 3 C-1.34 2.01 -0.68 1.02 0 0 Z " fill="#556788" transform="translate(294,405)"/>
<path d="M0 0 C5.17061524 1.95117556 7.95330257 5.98833162 11.3125 10.25 C11.87710937 10.94351562 12.44171875 11.63703125 13.0234375 12.3515625 C14.89788127 15.11210696 14.79684724 16.99795425 14.3125 20.25 C12.6875 22.25 12.6875 22.25 10.3125 23.25 C5.00493416 22.15900036 2.23816779 19.58844047 -1.0625 15.5 C-1.73732422 14.73042969 -1.73732422 14.73042969 -2.42578125 13.9453125 C-4.66122787 11.24103361 -5.66063582 9.49440559 -6.046875 5.98046875 C-5.6875 3.25 -5.6875 3.25 -4.5625 1.3125 C-2.6875 0.25 -2.6875 0.25 0 0 Z " fill="#78D1F2" transform="translate(341.6875,351.75)"/>
<path d="M0 0 C13.86 0 27.72 0 42 0 C39.45936214 5.08127572 39.45936214 5.08127572 36 7 C32.87133789 7.38818359 32.87133789 7.38818359 29.22265625 7.3984375 C27.90458984 7.40230469 26.58652344 7.40617187 25.22851562 7.41015625 C24.54442627 7.40387207 23.86033691 7.39758789 23.15551758 7.39111328 C21.07241003 7.37507629 18.99124998 7.3909622 16.90820312 7.41015625 C14.92916992 7.40435547 14.92916992 7.40435547 12.91015625 7.3984375 C11.70496338 7.39505371 10.49977051 7.39166992 9.25805664 7.38818359 C5.68307928 6.96224024 3.79039447 6.25930186 1 4 C0.67 2.68 0.34 1.36 0 0 Z " fill="#4E5F7E" transform="translate(237,449)"/>
<path d="M0 0 C3.59560426 0.52194255 4.8098134 1.96291342 7.2890625 4.57421875 C8.04445312 5.35152344 8.79984375 6.12882812 9.578125 6.9296875 C12.47060908 10.33675208 14.47627747 13.04539711 15.1015625 17.51171875 C14.6640625 20.38671875 14.6640625 20.38671875 13.0390625 22.38671875 C10.6640625 23.38671875 10.6640625 23.38671875 7.8515625 23.13671875 C3.15283315 20.5570242 0.66930556 16.73940077 -2.3359375 12.38671875 C-2.9959375 11.47921875 -3.6559375 10.57171875 -4.3359375 9.63671875 C-5.61085453 6.76815543 -5.36567673 5.31751501 -4.3359375 2.38671875 C-2.3359375 0.38671875 -2.3359375 0.38671875 0 0 Z " fill="#77CEEA" transform="translate(165.3359375,94.61328125)"/>
<path d="M0 0 C2.8125 0.8125 2.8125 0.8125 3.8125 1.8125 C4.39213954 5.36279217 4.50198313 7.80255288 2.42578125 10.84375 C1.20889596 12.21637549 -0.04131996 13.56005185 -1.3203125 14.875 C-3.00825162 16.62650168 -4.3484911 18.39639921 -5.75 20.375 C-8.1875 22.8125 -8.1875 22.8125 -11.375 22.875 C-14.1875 21.8125 -14.1875 21.8125 -16.1875 18.8125 C-16.41575911 14.01905861 -14.40977066 11.62351594 -11.375 8.1875 C-9.99623288 6.71302109 -8.60043493 5.25427033 -7.1875 3.8125 C-6.506875 3.05839844 -5.82625 2.30429687 -5.125 1.52734375 C-3.1875 -0.1875 -3.1875 -0.1875 0 0 Z " fill="#74CFF1" transform="translate(176.1875,352.1875)"/>
<path d="M0 0 C1.093125 0.226875 2.18625 0.45375 3.3125 0.6875 C4.21428985 3.91648946 4.92253736 6.46837011 3.36669922 9.57763672 C1.92246261 11.53329877 0.38511051 13.32618809 -1.25 15.125 C-1.77658203 15.76115234 -2.30316406 16.39730469 -2.84570312 17.05273438 C-5.53635449 20.11882547 -6.84072643 21.54923066 -10.96484375 22.22265625 C-13.6875 21.6875 -13.6875 21.6875 -15.6875 19.6875 C-16.23995313 15.80938843 -15.96799615 14.12206321 -13.82421875 10.80078125 C-13.01597656 9.87652344 -12.20773437 8.95226562 -11.375 8 C-10.17423828 6.60201172 -10.17423828 6.60201172 -8.94921875 5.17578125 C-8.20285156 4.35464844 -7.45648438 3.53351563 -6.6875 2.6875 C-6.171875 2.07648438 -5.65625 1.46546875 -5.125 0.8359375 C-3.6875 -0.3125 -3.6875 -0.3125 0 0 Z " fill="#7AD2F1" transform="translate(351.6875,95.3125)"/>
<path d="M0 0 C3 2.625 3 2.625 5 6 C5.14971147 10.34163268 4.72194213 12.19555019 1.8125 15.4375 C-1.54388796 17.30215998 -3.2177434 17.6303761 -7 17 C-9.69990662 15.20006226 -11.5418865 13.916227 -13 11 C-13.43023798 7.12785818 -13.31669086 5.47503629 -11.125 2.1875 C-7.40018563 -1.64686773 -5.12145288 -1.30206429 0 0 Z " fill="#5AD3FB" transform="translate(219,168)"/>
<path d="M0 0 C2.69990662 1.79993774 4.5418865 3.083773 6 6 C6.52981019 9.97357645 6.31881474 11.54170381 4 14.875 C0.67862707 17.22763916 -1.0698782 17.81934893 -5.05859375 17.546875 C-8.81838767 16.48777812 -10.15396038 14.27523158 -12 11 C-12.14971147 6.65836732 -11.72194213 4.80444981 -8.8125 1.5625 C-5.45611204 -0.30215998 -3.7822566 -0.6303761 0 0 Z " fill="#FABB6D" transform="translate(323,208)"/>
<path d="M0 0 C2.4375 1.5625 2.4375 1.5625 4 4 C4.80016627 8.01732963 4.66540643 10.96196597 2.4375 14.4375 C-0.83565762 16.53567796 -3.11417724 17 -7 17 C-9.80189446 15.23358828 -11.51524911 13.96950178 -13 11 C-13.43023798 7.12785818 -13.31669086 5.47503629 -11.125 2.1875 C-7.38445041 -1.66306575 -5.14450674 -1.1530791 0 0 Z " fill="#F58991" transform="translate(306,168)"/>
<path d="M0 0 C3.52744682 0.85916031 4.973663 2.54444741 6.97265625 5.48046875 C7.59867163 9.44523281 7.63211664 11.47808896 5.41015625 14.85546875 C2.09768395 17.06378362 -0.04012846 17.54921384 -4.02734375 17.48046875 C-7.46484375 15.48046875 -7.46484375 15.48046875 -10.02734375 12.48046875 C-10.76698898 8.33845544 -10.43573715 6.28023916 -8.52734375 2.54296875 C-5.66687471 0.18308179 -3.70367472 -0.25614199 0 0 Z " fill="#A0E58D" transform="translate(211.02734375,270.51953125)"/>
<path d="M0 0 C3 2.125 3 2.125 5 5 C5.55348638 8.87440468 5.29968563 11.78044012 3 15 C0.03842928 17.04246256 -2.45225073 17.60571329 -6 17 C-8.75 14.5625 -8.75 14.5625 -11 12 C-11.33 11.67 -11.66 11.34 -12 11 C-11.55075594 4.03671706 -11.55075594 4.03671706 -9.9375 1 C-6.68589178 -0.6782494 -3.50401268 -0.7226174 0 0 Z " fill="#A1E289" transform="translate(310,271)"/>
<path d="M0 0 C18.48 0 36.96 0 56 0 C51.49885878 4.50114122 51.49885878 4.50114122 47.09545898 4.51757812 C46.12442734 4.53018677 45.15339569 4.54279541 44.15293884 4.55578613 C42.59030052 4.54364075 42.59030052 4.54364075 40.99609375 4.53125 C39.92126236 4.5350769 38.84643097 4.53890381 37.73902893 4.54284668 C35.46866926 4.54556694 33.1982783 4.53819784 30.92797852 4.52148438 C27.44672077 4.50005676 23.96752206 4.52129426 20.48632812 4.546875 C18.28124543 4.54423216 16.07616402 4.53910808 13.87109375 4.53125 C12.82731064 4.53934692 11.78352753 4.54744385 10.70811462 4.55578613 C9.74023514 4.54317749 8.77235565 4.53056885 7.77514648 4.51757812 C6.9233934 4.51439575 6.07164032 4.51121338 5.19407654 4.50793457 C3 4 3 4 0 0 Z " fill="#C7D7E9" transform="translate(217,427)"/>
<path d="M0 0 C2.4375 1.5 2.4375 1.5 4 4 C4.60966834 6.80677501 4.6655395 9.20014415 4 12 C1.61054251 14.73080856 0.02666021 15.76900145 -3.5 16.5625 C-7.27592854 15.71291608 -8.7132584 14.07076729 -11 11 C-11.63007693 7.00951279 -11.63021887 4.98314143 -9.4375 1.5625 C-6.05782196 -0.60396028 -3.94016013 -0.56288002 0 0 Z " fill="#F9898E" transform="translate(198,226)"/>
<path d="M0 0 C2.875 0.9375 2.875 0.9375 5.875 2.9375 C6.51484231 5.9753099 6.37315662 8.88139311 5.875 11.9375 C3.69970111 14.69845629 2.32940825 14.87123213 -1.125 15.375 C-4.125 14.9375 -4.125 14.9375 -6.5 13.3125 C-8.63823431 10.18738831 -8.8079669 8.65587535 -8.125 4.9375 C-5.57421694 1.41141753 -4.45101262 -0.08902025 0 0 Z " fill="#62B86D" transform="translate(259.125,153.0625)"/>
<path d="M0 0 C2.69097695 2.08550714 4.72333049 3.73555173 5.47265625 7.16015625 C5.62636992 11.16339482 5.32850366 13.44858314 3.25 16.9375 C-0.44259464 20.32237842 -1.78535494 21.01928008 -6.9375 20.9375 C-10.027108 20.42448673 -11.23666806 19.8388643 -13.9375 18 C-16.56386488 14.1798329 -17.35506503 10.6340539 -17 6 C-16.34 5.34 -15.68 4.68 -15 4 C-14.731875 5.093125 -14.46375 6.18625 -14.1875 7.3125 C-13.05078126 11.47782025 -13.05078126 11.47782025 -10 14 C-7.24997571 14.46025511 -4.71281459 14.6946118 -2 14 C0.29869902 11.79264001 0.98189186 10.62901966 1.07421875 7.421875 C0.94660156 6.54015625 0.81898438 5.6584375 0.6875 4.75 C0.56761719 3.85796875 0.44773437 2.9659375 0.32421875 2.046875 C0.21722656 1.37140625 0.11023438 0.6959375 0 0 Z " fill="#F9A345" transform="translate(264,199)"/>
<path d="M0 0 C3.3 0 6.6 0 10 0 C10 5.28 10 10.56 10 16 C6.7 16 3.4 16 0 16 C0 10.72 0 5.44 0 0 Z " fill="#2997DC" transform="translate(253,356)"/>
<path d="M0 0 C10.30524393 -0.07336144 20.57728295 0.15104393 30.875 0.5 C32.35285779 0.54838515 33.83072237 0.59656325 35.30859375 0.64453125 C38.87247697 0.76064557 42.43626134 0.87952115 46 1 C46 1.33 46 1.66 46 2 C47.98 2.33 49.96 2.66 52 3 C52 3.33 52 3.66 52 4 C34.84 4 17.68 4 0 4 C0 2.68 0 1.36 0 0 Z " fill="#D0DBEC" transform="translate(211,405)"/>
<path d="M0 0 C1.15209961 0.02094727 2.30419922 0.04189453 3.49121094 0.06347656 C4.74160156 0.07636719 5.99199219 0.08925781 7.28027344 0.10253906 C9.23320312 0.1528125 9.23320312 0.1528125 11.22558594 0.20410156 C12.54300781 0.22214844 13.86042969 0.24019531 15.21777344 0.25878906 C18.47110901 0.30593885 21.72298219 0.37174112 24.97558594 0.45410156 C24.31558594 1.77410156 23.65558594 3.09410156 22.97558594 4.45410156 C13.07558594 4.45410156 3.17558594 4.45410156 -7.02441406 4.45410156 C-3.02441406 0.45410156 -3.02441406 0.45410156 0 0 Z " fill="#7385A7" transform="translate(276.0244140625,426.5458984375)"/>
<path d="M0 0 C-0.33 1.65 -0.66 3.3 -1 5 C-1.99 5 -2.98 5 -4 5 C-4.268125 6.093125 -4.53625 7.18625 -4.8125 8.3125 C-6.4488189 13.39370079 -6.4488189 13.39370079 -9 15 C-11.625 15.25 -11.625 15.25 -14 15 C-15 14 -15 14 -15.375 11.25 C-15 8 -15 8 -12.6875 5.125 C-10 3 -10 3 -7 3 C-1.875 0 -1.875 0 0 0 Z " fill="#FBB65C" transform="translate(380,140)"/>
<path d="M0 0 C1.1446875 0.1546875 1.1446875 0.1546875 2.3125 0.3125 C2.6425 1.3025 2.9725 2.2925 3.3125 3.3125 C3.9725 3.3125 4.6325 3.3125 5.3125 3.3125 C4.9825 4.9625 4.6525 6.6125 4.3125 8.3125 C2.9925 8.3125 1.6725 8.3125 0.3125 8.3125 C0.3125 8.9725 0.3125 9.6325 0.3125 10.3125 C-2.6575 10.9725 -5.6275 11.6325 -8.6875 12.3125 C-8.6875 12.9725 -8.6875 13.6325 -8.6875 14.3125 C-9.3475 14.3125 -10.0075 14.3125 -10.6875 14.3125 C-10.6875 13.3225 -10.6875 12.3325 -10.6875 11.3125 C-11.6775 11.6425 -12.6675 11.9725 -13.6875 12.3125 C-13.3575 11.3225 -13.0275 10.3325 -12.6875 9.3125 C-12.0275 9.3125 -11.3675 9.3125 -10.6875 9.3125 C-10.6875 8.6525 -10.6875 7.9925 -10.6875 7.3125 C-9.3675 6.9825 -8.0475 6.6525 -6.6875 6.3125 C-6.6875 6.9725 -6.6875 7.6325 -6.6875 8.3125 C-6.0275 8.3125 -5.3675 8.3125 -4.6875 8.3125 C-5.0175 7.3225 -5.3475 6.3325 -5.6875 5.3125 C-3.6408826 0.42335844 -3.6408826 0.42335844 0 0 Z " fill="#FBB64F" transform="translate(146.6875,309.6875)"/>
<path d="M0 0 C0.33 0 0.66 0 1 0 C1.66 2.31 2.32 4.62 3 7 C7.65694196 7.44234926 7.65694196 7.44234926 11.8125 5.75 C13.07011437 3.89667355 14.08409002 2.0431838 15 0 C17 2 17 2 17.4375 4.8125 C17 8 17 8 15 10.875 C11.67862707 13.22763916 9.9301218 13.81934893 5.94140625 13.546875 C2.18161233 12.48777812 0.84603962 10.27523158 -1 7 C-0.8125 3.125 -0.8125 3.125 0 0 Z " fill="#E49D52" transform="translate(312,212)"/>
<path d="M0 0 C1.5625 1.0625 1.5625 1.0625 3 3 C3 7.20840055 2.6488244 9.27702425 -0.1875 12.4375 C-3.54388796 14.30215998 -5.2177434 14.6303761 -9 14 C-11.69990662 12.20006226 -13.5418865 10.916227 -15 8 C-15.039992 6.00039988 -15.04346799 3.99952758 -15 2 C-14.71125 2.61875 -14.4225 3.2375 -14.125 3.875 C-13.06279958 6.13325765 -13.06279958 6.13325765 -11 8 C-7.35082284 8.47597963 -5.66208166 8.50103477 -2.6875 6.25 C-1.04791095 4.06388127 -0.38205437 2.67438062 0 0 Z " fill="#21A0E3" transform="translate(221,171)"/>
<path d="M0 0 C2 2 2 2 2.375 5.875 C2.28349972 8.84068565 2.08557446 9.86650384 0.4375 12.4375 C-2.83565762 14.53567796 -5.11417724 15 -9 15 C-11.80189446 13.23358828 -13.51524911 11.96950178 -15 9 C-15.039992 7.00039988 -15.04346799 4.99952758 -15 3 C-14.195625 4.2065625 -14.195625 4.2065625 -13.375 5.4375 C-11.18833148 8.19463286 -11.18833148 8.19463286 -8 9.0625 C-4.93822768 9.27772353 -4.93822768 9.27772353 -2.6875 7.375 C-0.88225975 4.8342915 -0.34122187 3.07099684 0 0 Z " fill="#E7647E" transform="translate(308,170)"/>
<path d="M0 0 C1.5 1.125 1.5 1.125 3 3 C3.41158832 6.86893019 3.29427725 9.78801186 1 13 C-1.96157072 15.04246256 -4.45225073 15.60571329 -8 15 C-10.75 12.5625 -10.75 12.5625 -13 10 C-13.33 9.67 -13.66 9.34 -14 9 C-14.04063832 7.33382885 -14.042721 5.66611905 -14 4 C-13.319375 4.845625 -12.63875 5.69125 -11.9375 6.5625 C-9.16322485 9.392456 -9.16322485 9.392456 -5.3125 9 C-1.74460887 8.30616669 -1.74460887 8.30616669 0 5 C0.16713569 2.37468476 0.16713569 2.37468476 0 0 Z " fill="#60B06F" transform="translate(312,273)"/>
<path d="M0 0 C2 3 2 3 1.625 5.6875 C1.41875 6.450625 1.2125 7.21375 1 8 C5.0100934 8.17864631 5.0100934 8.17864631 9 8 C11.5654594 5.4345406 11.54046087 3.52313332 12 0 C14 2 14 2 14.4375 5.875 C14.35148262 9.25425418 14.15947554 9.81774225 11.8125 12.5 C8.72015 14.14925334 7.4172248 14.76887558 4 14 C1.1875 11.9375 1.1875 11.9375 -1 9 C-1.35201103 5.53855822 -1.56935594 3.13871188 0 0 Z " fill="#DB6580" transform="translate(188,228)"/>
<path d="M0 0 C0.66 0.33 1.32 0.66 2 1 C2.48209366 7.26721763 2.48209366 7.26721763 0.4375 10.375 C-2.8749723 12.58331487 -5.01278471 13.06874509 -9 13 C-12.4375 11 -12.4375 11 -15 8 C-15.375 4.1875 -15.375 4.1875 -15 1 C-14.67 1 -14.34 1 -14 1 C-13.87625 1.804375 -13.7525 2.60875 -13.625 3.4375 C-13.41875 4.283125 -13.2125 5.12875 -13 6 C-9.9167365 7.54163175 -7.39121901 7.29747535 -4 7 C-1.66869281 4.74640305 -1.02928092 3.08784275 0 0 Z " fill="#5CB767" transform="translate(216,275)"/>
<path d="M0 0 C3.4375 0.1875 3.4375 0.1875 4.4375 1.1875 C4.625 4.625 4.625 4.625 4.4375 8.1875 C2.4375 10.1875 2.4375 10.1875 -0.5625 10.4375 C-3.5625 10.1875 -3.5625 10.1875 -5.5625 8.1875 C-5.8125 5.1875 -5.8125 5.1875 -5.5625 2.1875 C-3.5625 0.1875 -3.5625 0.1875 0 0 Z " fill="#F0FDFD" transform="translate(168.5625,190.8125)"/>
<path d="M0 0 C3.1875 -0.3125 3.1875 -0.3125 6 0 C6 0.33 6 0.66 6 1 C4.02 1.66 2.04 2.32 0 3 C0 13.89 0 24.78 0 36 C1.98 36 3.96 36 6 36 C5.67 36.66 5.34 37.32 5 38 C2.125 37.6875 2.125 37.6875 -1 37 C-4.1515165 32.27272525 -3.33388076 27.22008398 -3.31567383 21.65820312 C-3.31252149 19.63876999 -3.33595198 17.62081375 -3.36132812 15.6015625 C-3.36197266 14.3228125 -3.36261719 13.0440625 -3.36328125 11.7265625 C-3.36626221 10.55689941 -3.36924316 9.38723633 -3.37231445 8.18212891 C-2.96101069 4.66676281 -2.2023328 2.75748615 0 0 Z " fill="#DB9D5C" transform="translate(255,62)"/>
<path d="M0 0 C0.495 0.99 0.495 0.99 1 2 C-0.1875 3.9375 -0.1875 3.9375 -2 6 C-3.65919896 6.36871088 -5.32774271 6.69595322 -7 7 C-14.70977227 10.71211258 -19.77258549 16.33054011 -25 23 C-25.66 23.61875 -26.32 24.2375 -27 24.875 C-29.62674579 27.6659174 -31.18412325 30.62765746 -33 34 C-33.66 34 -34.32 34 -35 34 C-30.39827421 19.27447747 -14.93258722 8.04536468 -2 1 C-1.34 0.67 -0.68 0.34 0 0 Z " fill="#89E1F3" transform="translate(215,144)"/>
<path d="M0 0 C0.33 0.33 0.66 0.66 1 1 C0.28 7.72 0.28 7.72 -1 9 C-4.5 9.125 -4.5 9.125 -8 9 C-8.33 8.67 -8.66 8.34 -9 8 C-8.94921875 6.1875 -8.94921875 6.1875 -8.6875 4 C-8.60886719 3.278125 -8.53023437 2.55625 -8.44921875 1.8125 C-8.30097656 1.214375 -8.15273437 0.61625 -8 0 C-5.11795733 -1.44102133 -3.08226581 -0.65580124 0 0 Z " fill="#A7EA93" transform="translate(262,154)"/>
<path d="M0 0 C1.8125 0.5625 1.8125 0.5625 4 2 C6.51499462 6.83652811 7.7913685 11.70061574 9 17 C4.125 14.25 4.125 14.25 3 12 C2.34 12 1.68 12 1 12 C-0.6875 10.4375 -0.6875 10.4375 -2 8 C-1.56363636 1.56363636 -1.56363636 1.56363636 0 0 Z " fill="#FDB654" transform="translate(378,317)"/>
<path d="M0 0 C10.89 0 21.78 0 33 0 C30 3 30 3 26.99731445 3.2487793 C25.19846802 3.16237183 25.19846802 3.16237183 23.36328125 3.07421875 C22.06455078 3.01943359 20.76582031 2.96464844 19.42773438 2.90820312 C18.05597166 2.83497036 16.68422702 2.7613983 15.3125 2.6875 C13.92910079 2.62422838 12.54563651 2.56236272 11.16210938 2.50195312 C7.7738442 2.3484777 4.38691079 2.18058886 1 2 C0.67 1.34 0.34 0.68 0 0 Z " fill="#113152" transform="translate(210,372)"/>
<path d="M0 0 C11.22 0 22.44 0 34 0 C31 3 31 3 27.8137207 3.34057617 C26.53070068 3.32486572 25.24768066 3.30915527 23.92578125 3.29296875 C23.2419487 3.28872391 22.55811615 3.28447906 21.8535614 3.28010559 C19.67280439 3.26333353 17.49297691 3.22568657 15.3125 3.1875 C13.83269565 3.17245114 12.3528768 3.15876308 10.87304688 3.14648438 C7.24839664 3.11343569 3.62428906 3.06166446 0 3 C0 2.01 0 1.02 0 0 Z " fill="#E2AA64" transform="translate(391,238)"/>
<path d="M0 0 C1.423125 0.4021875 1.423125 0.4021875 2.875 0.8125 C3.205 1.4725 3.535 2.1325 3.875 2.8125 C3.215 2.8125 2.555 2.8125 1.875 2.8125 C1.545 4.4625 1.215 6.1125 0.875 7.8125 C-0.115 7.8125 -1.105 7.8125 -2.125 7.8125 C-2.455 8.8025 -2.785 9.7925 -3.125 10.8125 C-4.115 10.1525 -5.105 9.4925 -6.125 8.8125 C-6.52805767 5.65521494 -6.61720789 3.66019137 -5 0.875 C-3.125 -0.1875 -3.125 -0.1875 0 0 Z " fill="#75C8E7" transform="translate(342.125,352.1875)"/>
<path d="M0 0 C1.32 0 2.64 0 4 0 C4 4.62 4 9.24 4 14 C1.36 14 -1.28 14 -4 14 C-4 13.34 -4 12.68 -4 12 C-2.68 11.67 -1.36 11.34 0 11 C-0.08378906 10.37351562 -0.16757812 9.74703125 -0.25390625 9.1015625 C-0.35574219 8.28429687 -0.45757812 7.46703125 -0.5625 6.625 C-0.66691406 5.81289063 -0.77132813 5.00078125 -0.87890625 4.1640625 C-1 2 -1 2 0 0 Z " fill="#1C98E4" transform="translate(258,357)"/>
<path d="M0 0 C3.875 1.875 3.875 1.875 5 3 C6.50316769 3.1224331 8.01188167 3.17776285 9.51977539 3.20532227 C10.96115623 3.2352401 10.96115623 3.2352401 12.43165588 3.26576233 C13.476436 3.28247482 14.52121613 3.29918732 15.59765625 3.31640625 C16.66165146 3.33718735 17.72564667 3.35796844 18.82188416 3.37937927 C22.2353544 3.44499254 25.64890429 3.50381423 29.0625 3.5625 C31.37045109 3.60567403 33.678394 3.64928794 35.98632812 3.69335938 C41.65746682 3.80068584 47.32868552 3.90242992 53 4 C53 4.33 53 4.66 53 5 C36.17 5 19.34 5 2 5 C1.34 3.35 0.68 1.7 0 0 Z " fill="#6A7A99" transform="translate(215,427)"/>
<path d="M0 0 C2.69921875 -0.48828125 2.69921875 -0.48828125 5.6875 -0.3125 C6.68136719 -0.26738281 7.67523438 -0.22226562 8.69921875 -0.17578125 C9.45847656 -0.11777344 10.21773438 -0.05976563 11 0 C11 1.65 11 3.3 11 5 C6.38 5 1.76 5 -3 5 C-2.01 3.35 -1.02 1.7 0 0 Z " fill="#6C80A6" transform="translate(294,405)"/>
<path d="M0 0 C2.5625 1.125 2.5625 1.125 4.5625 4.125 C4.2325 5.115 3.9025 6.105 3.5625 7.125 C3.5625 6.465 3.5625 5.805 3.5625 5.125 C2.9025 5.125 2.2425 5.125 1.5625 5.125 C1.2325 4.465 0.9025 3.805 0.5625 3.125 C-1.96483235 2.46944881 -1.96483235 2.46944881 -4.4375 2.125 C-4.6540625 2.99125 -4.6540625 2.99125 -4.875 3.875 C-5.39583333 5.95833333 -5.91666667 8.04166667 -6.4375 10.125 C-9.4075 9.63 -9.4075 9.63 -12.4375 9.125 C-12.4375 9.785 -12.4375 10.445 -12.4375 11.125 C-14.0875 11.785 -15.7375 12.445 -17.4375 13.125 C-13.13381043 7.43302347 -7.53777795 0.27410102 0 0 Z " fill="#EBA95A" transform="translate(148.4375,307.875)"/>
<path d="M0 0 C0 3.71594733 -0.61835808 5.15739513 -3 8 C-6.6875 8.3125 -6.6875 8.3125 -10 8 C-9.67372714 4.98197607 -9.38918764 3.40308719 -7.25 1.1875 C-4.62847443 -0.19608294 -2.92325122 -0.24360427 0 0 Z " fill="#6DD1ED" transform="translate(217,167)"/>
<path d="M0 0 C0.33 0 0.66 0 1 0 C1.2475 1.051875 1.495 2.10375 1.75 3.1875 C2.76700786 6.8133541 4.45373429 9.19910772 7 12 C6.01 12.495 6.01 12.495 5 13 C6.58272601 14.58272601 8.38034003 14.34735747 10.5625 14.5625 C11.38878906 14.64628906 12.21507812 14.73007813 13.06640625 14.81640625 C13.70449219 14.87699219 14.34257812 14.93757812 15 15 C14.34 15.66 13.68 16.32 13 17 C8.31129314 16.92313595 5.95209788 16.64823685 2.0625 14 C-0.61044587 10.11207874 -1.12869215 6.67887885 -1 2 C-0.67 1.34 -0.34 0.68 0 0 Z " fill="#DF9C50" transform="translate(248,203)"/>
<path d="M0 0 C0.33 0.66 0.66 1.32 1 2 C0.04882866 3.1725131 -0.91117009 4.33787015 -1.875 5.5 C-2.67550781 6.47453125 -2.67550781 6.47453125 -3.4921875 7.46875 C-3.98976563 7.9740625 -4.48734375 8.479375 -5 9 C-5.66 9 -6.32 9 -7 9 C-6.67 9.99 -6.34 10.98 -6 12 C-11.50669216 15.51816444 -11.50669216 15.51816444 -15 16 C-15.66 15.67 -16.32 15.34 -17 15 C-15.10600285 13.24797712 -13.20988262 11.49835022 -11.3125 9.75 C-10.51682617 9.01330078 -10.51682617 9.01330078 -9.70507812 8.26171875 C-6.56566972 5.37269261 -3.36822939 2.62459433 0 0 Z " fill="#E2A864" transform="translate(384,129)"/>
<path d="M0 0 C0 0.33 0 0.66 0 1 C-0.66418945 0.98952637 -1.32837891 0.97905273 -2.01269531 0.96826172 C-20.43621322 0.70977934 -20.43621322 0.70977934 -38.55078125 3.62890625 C-41.06901489 4.0104568 -42.60703045 3.79765652 -45 3 C-30.65003674 -1.6653001 -14.88695559 -3.08265242 0 0 Z " fill="#97E0F0" transform="translate(274,135)"/>
<path d="M0 0 C0.90105469 0.02707031 1.80210937 0.05414063 2.73046875 0.08203125 C3.76107422 0.13423828 3.76107422 0.13423828 4.8125 0.1875 C4.8125 1.8375 4.8125 3.4875 4.8125 5.1875 C0.5225 5.1875 -3.7675 5.1875 -8.1875 5.1875 C-8.1875 3.1875 -8.1875 3.1875 -7.01171875 1.57421875 C-4.56833632 -0.28317046 -3.03181482 -0.11812266 0 0 Z " fill="#6C7FA3" transform="translate(300.1875,382.8125)"/>
<path d="M0 0 C-0.99 0.33 -1.98 0.66 -3 1 C-2.79375 1.61875 -2.5875 2.2375 -2.375 2.875 C-2.25125 3.57625 -2.1275 4.2775 -2 5 C-4.76223278 7.76223278 -7.20706617 7.57856291 -11 8 C-11.21620175 5.3335118 -11.30894168 3.55995679 -10 1.1875 C-6.76011038 -0.73618446 -3.7174181 -0.18282384 0 0 Z " fill="#A7D59C" transform="translate(310,271)"/>
<path d="M0 0 C0 3 0 3 -1.26928711 4.56225586 C-2.13952515 5.38028687 -2.13952515 5.38028687 -3.02734375 6.21484375 C-3.96803711 7.12073242 -3.96803711 7.12073242 -4.92773438 8.04492188 C-6.2635582 9.3028551 -7.59949503 10.56066834 -8.93554688 11.81835938 C-9.56396484 12.42357422 -10.19238281 13.02878906 -10.83984375 13.65234375 C-11.42113037 14.19882568 -12.00241699 14.74530762 -12.60131836 15.30834961 C-14.176761 17.21378547 -14.46957355 18.62057116 -15 21 C-18.32142857 24 -18.32142857 24 -21 24 C-16.63492117 14.52154311 -7.33987584 7.23140477 0 0 Z " fill="#0E182E" transform="translate(183,139)"/>
<path d="M0 0 C1.875 1.5 1.875 1.5 3 3 C2.195625 3.12375 1.39125 3.2475 0.5625 3.375 C-0.7059375 3.684375 -0.7059375 3.684375 -2 4 C-2.33 4.66 -2.66 5.32 -3 6 C-5.5625 6.625 -5.5625 6.625 -8 7 C-8.33 5.35 -8.66 3.7 -9 2 C-5.53076119 -0.31282587 -4.07794425 -0.42478586 0 0 Z " fill="#EAC081" transform="translate(323,208)"/>
<path d="M0 0 C0 3 0 6 0 9 C2.37374861 9.33425735 2.37374861 9.33425735 5 9 C6.63676257 7.0399719 6.63676257 7.0399719 8 5 C8.99 5 9.98 5 11 5 C9.60812281 8.36370321 8.20568604 10.21906331 5 12 C1.875 12.3125 1.875 12.3125 -1 12 C-3 10 -3 10 -3.3125 7.125 C-2.9736202 3.73620199 -2.27183419 2.46115371 0 0 Z " fill="#E4AB69" transform="translate(366,145)"/>
<path d="M0 0 C0.33 0 0.66 0 1 0 C1.226875 1.11375 1.45375 2.2275 1.6875 3.375 C2.60623658 7.16038373 2.60623658 7.16038373 5.625 8.4375 C6.40875 8.623125 7.1925 8.80875 8 9 C8 9.99 8 10.98 8 12 C9.32 12.33 10.64 12.66 12 13 C9.06989703 13.29797657 6.85737154 13.50083081 4 13 C0.9375 10.4375 0.9375 10.4375 -1 7 C-0.8125 3.125 -0.8125 3.125 0 0 Z " fill="#DC9955" transform="translate(312,212)"/>
<path d="M0 0 C0.680625 0.845625 1.36125 1.69125 2.0625 2.5625 C4.83693444 5.40329361 4.83693444 5.40329361 8.6875 4.9375 C12.04787282 4.27734142 12.04787282 4.27734142 14 2 C14.33 2.99 14.66 3.98 15 5 C13.27593985 7.29874686 11.9363344 8.80406685 9.05859375 9.40625 C5.73567434 9.55311937 3.58590412 9.4943566 1 7.3125 C-0.13489245 4.6880612 -0.23590819 2.83089822 0 0 Z " fill="#66B868" transform="translate(298,277)"/>
<path d="M0 0 C0.33 0 0.66 0 1 0 C1 3.96 1 7.92 1 12 C-6.26 12 -13.52 12 -21 12 C-21 11.67 -21 11.34 -21 11 C-15.06 11 -9.12 11 -3 11 C-2.01 7.37 -1.02 3.74 0 0 Z " fill="#4F6182" transform="translate(305,383)"/>
<path d="M0 0 C1.52519276 0.08937803 3.04681929 0.24537146 4.5625 0.4375 C5.80193359 0.59025391 5.80193359 0.59025391 7.06640625 0.74609375 C7.70449219 0.82988281 8.34257812 0.91367188 9 1 C7.35 2.98 5.7 4.96 4 7 C2.35 6.67 0.7 6.34 -1 6 C-1.042721 4.33388095 -1.04063832 2.66617115 -1 1 C-0.67 0.67 -0.34 0.34 0 0 Z " fill="#EFC282" transform="translate(253,198)"/>
<path d="M0 0 C0 3 0 3 -2.0234375 5.6875 C-5.88177269 8.68505175 -7.82439241 8.45449539 -12.625 8 C-13.93726563 7.896875 -15.24953125 7.79375 -16.6015625 7.6875 C-19.91235531 7.01773042 -21.06389506 6.67852112 -23 4 C-21.7934375 4.2475 -21.7934375 4.2475 -20.5625 4.5 C-12.80861267 5.58826489 -8.02540959 5.71958568 -1.43359375 1.09375 C-0.96050781 0.7328125 -0.48742187 0.371875 0 0 Z " fill="#6EC6ED" transform="translate(320,292)"/>
<path d="M0 0 C2 3 2 3 1.75 5.5625 C1 8 1 8 -1 10 C-4.625 9.625 -4.625 9.625 -8 9 C-8.66 7.02 -9.32 5.04 -10 3 C-9.34 2.67 -8.68 2.34 -8 2 C-7.34 3.98 -6.68 5.96 -6 8 C-4.35 8 -2.7 8 -1 8 C-0.67 5.36 -0.34 2.72 0 0 Z " fill="#7FBEDC" transform="translate(214,89)"/>
<path d="M0 0 C0.66 0 1.32 0 2 0 C2 0.99 2 1.98 2 3 C2.66 3.33 3.32 3.66 4 4 C4.09812258 8.12114818 4.17344853 12.02832804 3 16 C0.4375 17.375 0.4375 17.375 -2 18 C-1.67 17.2575 -1.34 16.515 -1 15.75 C0.40324139 10.4878448 0.15769562 5.4142163 0 0 Z " fill="#6CBEE4" transform="translate(324,272)"/>
<path d="M0 0 C0.66 0 1.32 0 2 0 C1.67 1.32 1.34 2.64 1 4 C1.66 4 2.32 4 3 4 C3.33 4.99 3.66 5.98 4 7 C3.34 7 2.68 7 2 7 C2 7.66 2 8.32 2 9 C2.99 9.33 3.98 9.66 5 10 C4.34 10.66 3.68 11.32 3 12 C0.4375 9.875 0.4375 9.875 -2 7 C-1.8 1.8 -1.8 1.8 0 0 Z " fill="#F0AD64" transform="translate(365,309)"/>
<path d="M0 0 C1.32 0.33 2.64 0.66 4 1 C3.50886719 2.17949219 3.50886719 2.17949219 3.0078125 3.3828125 C1.72828805 7.97521422 1.78225597 12.13792039 1.875 16.875 C1.88402344 17.75414062 1.89304688 18.63328125 1.90234375 19.5390625 C1.92575423 21.6928271 1.9616199 23.84645014 2 26 C1.34 26 0.68 26 0 26 C0 17.42 0 8.84 0 0 Z " fill="#94DBF2" transform="translate(221,194)"/>
<path d="M0 0 C2 3 2 3 2 5 C4.475 5.99 4.475 5.99 7 7 C7 7.66 7 8.32 7 9 C4.6875 9.625 4.6875 9.625 2 10 C1.01 9.34 0.02 8.68 -1 8 C-1.25 4.4375 -1.25 4.4375 -1 1 C-0.67 0.67 -0.34 0.34 0 0 Z " fill="#9EE687" transform="translate(203,273)"/>
<path d="M0 0 C0.66 0 1.32 0 2 0 C2 0.66 2 1.32 2 2 C2.99 1.67 3.98 1.34 5 1 C5.0825 1.5775 5.165 2.155 5.25 2.75 C6.24192019 5.72576056 7.56687627 7.03998366 10 9 C12.64184541 9.79681318 12.64184541 9.79681318 15 10 C13.3125 11.1875 13.3125 11.1875 11 12 C5.83510703 10.0971447 2.90942498 5.45911871 0 1 C0 0.67 0 0.34 0 0 Z " fill="#7CC0DD" transform="translate(339,363)"/>
<path d="M0 0 C0.66 0.66 1.32 1.32 2 2 C1.92290713 6.16301483 1.62578976 8.30269141 -1.1875 11.4375 C-4.41176773 13.22875985 -6.36804503 13.33785628 -10 13 C-8.01388388 11.01388388 -6.55856751 10.08545288 -4 9 C-3.01 9 -2.02 9 -1 9 C-0.67 6.03 -0.34 3.06 0 0 Z " fill="#2989C4" transform="translate(222,172)"/>
<path d="M0 0 C-0.845625 0.37125 -1.69125 0.7425 -2.5625 1.125 C-6.88122732 3.48066945 -11.738679 6.477358 -14 11 C-14.66 10.67 -15.32 10.34 -16 10 C-12.7747372 4.22140415 -7.23717205 -2.60085871 0 0 Z " fill="#183A4E" transform="translate(213,158)"/>
<path d="M0 0 C3.5625 0.1875 3.5625 0.1875 5.5625 2.1875 C4.9025 2.1875 4.2425 2.1875 3.5625 2.1875 C3.2325 2.8475 2.9025 3.5075 2.5625 4.1875 C1.9025 4.1875 1.2425 4.1875 0.5625 4.1875 C-0.78632408 4.82224075 -2.1221659 5.48598848 -3.4375 6.1875 C-3.81968767 4.53135343 -4.15145102 2.86292976 -4.4375 1.1875 C-3.4375 0.1875 -3.4375 0.1875 0 0 Z " fill="#E79699" transform="translate(194.4375,225.8125)"/>
<path d="M0 0 C0.33 0.66 0.66 1.32 1 2 C0 5 0 5 -2 6 C-2 7.65 -2 9.3 -2 11 C0.475 11.99 0.475 11.99 3 13 C3 13.33 3 13.66 3 14 C0.125 14.125 0.125 14.125 -3 14 C-5 12 -5 12 -5.4375 9.25 C-4.83839921 4.79953698 -3.06348779 3.21666218 0 0 Z " fill="#7ABCDC" transform="translate(341,103)"/>
<path d="M0 0 C0.66 0 1.32 0 2 0 C2.66 2.97 3.32 5.94 4 9 C4.66 7.68 5.32 6.36 6 5 C6 7.64 6 10.28 6 13 C3.03 12.505 3.03 12.505 0 12 C0.08378906 11.38511719 0.16757812 10.77023438 0.25390625 10.13671875 C0.35574219 9.32847656 0.45757812 8.52023438 0.5625 7.6875 C0.66691406 6.88699219 0.77132813 6.08648437 0.87890625 5.26171875 C1.14755178 2.83182884 1.14755178 2.83182884 0 0 Z " fill="#27242B" transform="translate(327,211)"/>
<path d="M0 0 C4.82029598 3.73572939 4.82029598 3.73572939 5.33203125 7.3359375 C5.31436669 9.5758033 5.21850902 11.77120799 5 14 C4.34 13.01 3.68 12.02 3 11 C2.01 11.495 2.01 11.495 1 12 C0.67 8.04 0.34 4.08 0 0 Z " fill="#E5A250" transform="translate(264,199)"/>
<path d="M0 0 C0.33 1.32 0.66 2.64 1 4 C-0.109375 5.81640625 -0.109375 5.81640625 -1.75 7.5625 C-2.28109375 8.14128906 -2.8121875 8.72007812 -3.359375 9.31640625 C-4.89360104 10.8908144 -6.43852138 12.45263113 -8 14 C-8.66 13.67 -9.32 13.34 -10 13 C-5.05 6.565 -5.05 6.565 0 0 Z " fill="#C7DCE3" transform="translate(180,157)"/>
<path d="M0 0 C1.67542976 0.28604898 3.34385343 0.61781233 5 1 C4.67 2.65 4.34 4.3 4 6 C2.68 5.67 1.36 5.34 0 5 C-0.5625 3.0625 -0.5625 3.0625 -1 1 C-0.67 0.67 -0.34 0.34 0 0 Z " fill="#E2F3E0" transform="translate(205,271)"/>
<path d="M0 0 C3.375 0.9375 3.375 0.9375 5.375 3.9375 C5.375 4.9275 5.375 5.9175 5.375 6.9375 C4.715 6.9375 4.055 6.9375 3.375 6.9375 C3.375 5.6175 3.375 4.2975 3.375 2.9375 C-0.255 3.2675 -3.885 3.5975 -7.625 3.9375 C-5.1083218 0.61548478 -4.27928421 -0.07378076 0 0 Z " fill="#E2A165" transform="translate(392.625,125.0625)"/>
<path d="M0 0 C0.66 0 1.32 0 2 0 C1.625 1.9375 1.625 1.9375 1 4 C0.01 4.495 0.01 4.495 -1 5 C-1.65213292 7.02463255 -1.65213292 7.02463255 -2 9 C-1.34 9 -0.68 9 0 9 C0 9.66 0 10.32 0 11 C1.65 11 3.3 11 5 11 C5 11.33 5 11.66 5 12 C2.125 12.125 2.125 12.125 -1 12 C-3 10 -3 10 -3.3125 7.125 C-2.97238945 3.72389447 -2.39158579 2.39158579 0 0 Z " fill="#E9AC65" transform="translate(122,328)"/>
<path d="M0 0 C0.77321882 2.98241547 1.41196203 5.97580475 2 9 C5.41656024 9.16677282 5.41656024 9.16677282 9 9 C9.66 8.34 10.32 7.68 11 7 C10.67 8.32 10.34 9.64 10 11 C8.54207116 11.05399736 7.08357288 11.09279177 5.625 11.125 C4.81289062 11.14820313 4.00078125 11.17140625 3.1640625 11.1953125 C1 11 1 11 -1 9 C-1.75 6.0625 -1.75 6.0625 -2 3 C-1.34 2.01 -0.68 1.02 0 0 Z " fill="#9EDAEB" transform="translate(169,171)"/>
<path d="M0 0 C1.43088528 2.86177057 0.59991697 4.93375773 0 8 C1.32 8.66 2.64 9.32 4 10 C4 10.66 4 11.32 4 12 C4.99 12.33 5.98 12.66 7 13 C3.625 12.6875 3.625 12.6875 0 12 C-2.31332486 8.53001271 -2.33957563 7.07490752 -2 3 C-1.34 2.01 -0.68 1.02 0 0 Z " fill="#70B77C" transform="translate(253,155)"/>
<path d="M0 0 C0.99 1.32 1.98 2.64 3 4 C-2.50669216 7.51816444 -2.50669216 7.51816444 -6 8 C-6.66 7.67 -7.32 7.34 -8 7 C-5.36 4.69 -2.72 2.38 0 0 Z " fill="#E8A45D" transform="translate(375,137)"/>
<path d="M0 0 C0.33 1.65 0.66 3.3 1 5 C0.649375 4.484375 0.29875 3.96875 -0.0625 3.4375 C-2.07488597 1.63910834 -2.07488597 1.63910834 -5.5625 2.0625 C-9.06468563 2.62306084 -9.06468563 2.62306084 -10.4375 5.0625 C-10.623125 5.701875 -10.80875 6.34125 -11 7 C-11.2181301 4.30972879 -11.28470316 2.53381842 -10 0.125 C-6.67094132 -1.74759551 -3.68075232 -0.66374222 0 0 Z " fill="#3599D4" transform="translate(356,187)"/>
<path d="M0 0 C0.66 0.33 1.32 0.66 2 1 C0.54331217 3.96783129 -1.01232086 6.86415313 -2.625 9.75 C-3.29402344 10.94882813 -3.29402344 10.94882813 -3.9765625 12.171875 C-4.31429687 12.77515625 -4.65203125 13.3784375 -5 14 C-5.66 13.67 -6.32 13.34 -7 13 C-3.535 6.565 -3.535 6.565 0 0 Z " fill="#0A1030" transform="translate(157,168)"/>
<path d="M0 0 C0.66 0 1.32 0 2 0 C2 0.99 2 1.98 2 3 C1.34 3 0.68 3 0 3 C-0.226875 3.639375 -0.45375 4.27875 -0.6875 4.9375 C-2 7 -2 7 -4.625 7.75 C-5.800625 7.87375 -5.800625 7.87375 -7 8 C-6.02133662 6.85373678 -5.04205413 5.70800212 -4.0625 4.5625 C-3.51722656 3.92441406 -2.97195312 3.28632813 -2.41015625 2.62890625 C-1.63204305 1.73008851 -0.84063472 0.84063472 0 0 Z " fill="#CFE1E9" transform="translate(188,149)"/>
<path d="M0 0 C3 1 3 1 4.1875 3.0625 C4.455625 3.701875 4.72375 4.34125 5 5 C3.02 5.99 3.02 5.99 1 7 C0.01 6.34 -0.98 5.68 -2 5 C-1.34 3.35 -0.68 1.7 0 0 Z " fill="#FAB75E" transform="translate(393,332)"/>
<path d="M0 0 C3.33384804 0.73540765 5.42253812 1.69869475 8 4 C8 4.66 8 5.32 8 6 C8.66 6.33 9.32 6.66 10 7 C6 7 6 7 4.296875 5.46875 C3.78640625 4.8190625 3.2759375 4.169375 2.75 3.5 C2.22921875 2.8503125 1.7084375 2.200625 1.171875 1.53125 C0.78515625 1.0259375 0.3984375 0.520625 0 0 Z " fill="#E2A362" transform="translate(371,323)"/>
<path d="M0 0 C0.763125 0.61875 1.52625 1.2375 2.3125 1.875 C4.99625809 4.05597052 4.99625809 4.05597052 8 6 C6.6875 7.5 6.6875 7.5 5 9 C4.01 9 3.02 9 2 9 C1.34 6.03 0.68 3.06 0 0 Z " fill="#29282F" transform="translate(248,214)"/>
<path d="M0 0 C0.33 1.32 0.66 2.64 1 4 C0.02160156 4.03867188 0.02160156 4.03867188 -0.9765625 4.078125 C-6.88074693 4.46128741 -10.39666863 5.24465072 -15 9 C-14.9375 7.1875 -14.9375 7.1875 -14 5 C-8.90811417 2.04670622 -5.87201769 1.68179195 0 3 C0 2.01 0 1.02 0 0 Z " fill="#8FCFE9" transform="translate(300,215)"/>
<path d="M0 0 C0 0.66 0 1.32 0 2 C-0.60328125 2.25394531 -1.2065625 2.50789062 -1.828125 2.76953125 C-7.75675636 5.29568376 -7.75675636 5.29568376 -13 9 C-13 7.68 -13 6.36 -13 5 C-11.730447 4.35165346 -10.45930294 3.70642185 -9.1875 3.0625 C-8.47980469 2.70285156 -7.77210938 2.34320313 -7.04296875 1.97265625 C-4.66983249 0.84280744 -2.65322674 0 0 0 Z " fill="#8ED6EF" transform="translate(317,196)"/>
<path d="M0 0 C2 2 2 2 2.1953125 3.9453125 C2.13020833 5.96354167 2.06510417 7.98177083 2 10 C1.01 10.495 1.01 10.495 0 11 C-0.33 10.34 -0.66 9.68 -1 9 C-1.99 9 -2.98 9 -4 9 C-3.525625 8.443125 -3.05125 7.88625 -2.5625 7.3125 C-0.87604004 4.81653926 -0.41046893 2.9553763 0 0 Z " fill="#E2697F" transform="translate(308,170)"/>
<path d="M0 0 C3 3.625 3 3.625 3 7 C5.4347778 9.17390875 8.04987143 10.63029745 11 12 C7.49470398 12.40060526 6.2260594 12.15413141 3.25 10.125 C1 8 1 8 0 6 C-0.039992 4.00039988 -0.04346799 1.99952758 0 0 Z " fill="#BC5D78" transform="translate(293,173)"/>
<path d="M0 0 C1.32 0 2.64 0 4 0 C4 1.65 4 3.3 4 5 C3.01 5.33 2.02 5.66 1 6 C0.34 5.67 -0.32 5.34 -1 5 C-0.67 3.35 -0.34 1.7 0 0 Z " fill="#F8E8E3" transform="translate(297,168)"/>
<path d="M0 0 C0.33 0.66 0.66 1.32 1 2 C1.99 2 2.98 2 4 2 C4 1.34 4 0.68 4 0 C4.66 0 5.32 0 6 0 C4.50902342 3.7952131 2.24299151 5.61042731 -1 8 C-0.7525 7.13375 -0.7525 7.13375 -0.5 6.25 C0.14462031 3.73335631 0.14462031 3.73335631 0 0 Z " fill="#EAAD5B" transform="translate(129,331)"/>
<path d="M0 0 C0 1.65 0 3.3 0 5 C-1.9375 4.6875 -1.9375 4.6875 -4 4 C-4.33 3.01 -4.66 2.02 -5 1 C-5.66 0.67 -6.32 0.34 -7 0 C-4.3333581 -1.33332095 -2.83319697 -0.67102033 0 0 Z " fill="#FCBA50" transform="translate(393,327)"/>
<path d="M0 0 C2 1 2 1 2 1 Z M-3 2 C-2.01 2.495 -2.01 2.495 -1 3 C-1 3.66 -1 4.32 -1 5 C0.32 4.34 1.64 3.68 3 3 C2.34 4.65 1.68 6.3 1 8 C0.01 8 -0.98 8 -2 8 C-3 7 -3 7 -3.0625 4.4375 C-3.041875 3.633125 -3.02125 2.82875 -3 2 Z " fill="#75D5F3" transform="translate(101,283)"/>
<path d="M0 0 C0 1.32 0 2.64 0 4 C-1.65 4 -3.3 4 -5 4 C-5 3.01 -5 2.02 -5 1 C-5.99 0.67 -6.98 0.34 -8 0 C-4.71303767 -0.79953138 -3.28976808 -1.09658936 0 0 Z " fill="#F9A44B" transform="translate(325,220)"/>
<path d="M0 0 C2.60704898 2.60704898 2.23905333 4.47338241 2.265625 8.02734375 C2 10 2 10 0 13 C-0.83796731 8.34462607 -1.0161692 4.62921525 0 0 Z " fill="#29465F" transform="translate(274,154)"/>
<path d="M0 0 C2.9375 0.875 2.9375 0.875 4.9375 3.875 C4.6075 4.865 4.2775 5.855 3.9375 6.875 C3.9375 6.215 3.9375 5.555 3.9375 4.875 C3.2775 4.875 2.6175 4.875 1.9375 4.875 C1.6075 4.215 1.2775 3.555 0.9375 2.875 C-1.3725 2.875 -3.6825 2.875 -6.0625 2.875 C-4.09998049 0.14927846 -3.4499287 -0.14081342 0 0 Z " fill="#DDA056" transform="translate(148.0625,308.125)"/>
<path d="M0 0 C0.66 0.33 1.32 0.66 2 1 C2.25 7.625 2.25 7.625 0 11 C-0.66 11 -1.32 11 -2 11 C-1.34 7.37 -0.68 3.74 0 0 Z " fill="#61B072" transform="translate(216,275)"/>
<path d="M0 0 C1.65 0 3.3 0 5 0 C4.67 1.65 4.34 3.3 4 5 C2.68 4.67 1.36 4.34 0 4 C0 2.68 0 1.36 0 0 Z " fill="#EBF4E5" transform="translate(301,272)"/>
<path d="M0 0 C0.33 0 0.66 0 1 0 C0.93999894 1.6260287 0.8512115 3.25101549 0.75 4.875 C0.70359375 5.77992188 0.6571875 6.68484375 0.609375 7.6171875 C0 10 0 10 -2.046875 11.3203125 C-2.69140625 11.54460937 -3.3359375 11.76890625 -4 12 C-3.33501617 7.61110675 -1.81242323 4.0188515 0 0 Z " fill="#1D9EE1" transform="translate(221,171)"/>
<path d="M0 0 C0.33 0 0.66 0 1 0 C1.33 1.65 1.66 3.3 2 5 C4.31 5.66 6.62 6.32 9 7 C6.70221327 8.3950848 5.5207033 9.07438619 2.8125 8.6875 C1 8 1 8 0 7 C-0.04092937 4.66702567 -0.04241723 2.33294775 0 0 Z " fill="#70BD6E" transform="translate(201,276)"/>
<path d="M0 0 C0.66 1.32 1.32 2.64 2 4 C-1.96 3.67 -5.92 3.34 -10 3 C-10 2.67 -10 2.34 -10 2 C-3.375 0 -3.375 0 0 0 Z " fill="#88CFE9" transform="translate(306,228)"/>
<path d="M0 0 C0.99 0.33 1.98 0.66 3 1 C2.01 2.485 2.01 2.485 1 4 C0.34 4 -0.32 4 -1 4 C-1 5.65 -1 7.3 -1 9 C-1.66 8.34 -2.32 7.68 -3 7 C-2.67028521 3.70285207 -2.3773161 2.3773161 0 0 Z " fill="#78C4E5" transform="translate(395,182)"/>
<path d="M0 0 C1.65 0 3.3 0 5 0 C5 1.32 5 2.64 5 4 C3.68 4.33 2.36 4.66 1 5 C0.67 3.35 0.34 1.7 0 0 Z " fill="#D8F8FA" transform="translate(209,169)"/>
<path d="M0 0 C5.875 0.875 5.875 0.875 7 2 C7.04080783 3.99958364 7.04254356 6.00045254 7 8 C6.67 8 6.34 8 6 8 C6 6.35 6 4.7 6 3 C3.69 3 1.38 3 -1 3 C-0.67 2.01 -0.34 1.02 0 0 Z " fill="#78B1D0" transform="translate(173,352)"/>
<path d="M0 0 C3.01657791 0.14030595 5.23841273 0.29351465 7.51171875 2.40234375 C8.73256066 3.88904235 9.87246522 5.44134898 11 7 C9.125 6.75 9.125 6.75 7 6 C6.690625 5.34 6.38125 4.68 6.0625 4 C5.711875 3.34 5.36125 2.68 5 2 C2.44480079 1.18828772 2.44480079 1.18828772 0 1 C0 0.67 0 0.34 0 0 Z " fill="#EC9F5D" transform="translate(367,308)"/>
<path d="M0 0 C0.66 0.33 1.32 0.66 2 1 C1.814375 1.928125 1.62875 2.85625 1.4375 3.8125 C0.75876119 7.01343771 0.75876119 7.01343771 2 10 C0.68 9.34 -0.64 8.68 -2 8 C-1.125 1.125 -1.125 1.125 0 0 Z " fill="#74A7CB" transform="translate(394,276)"/>
<path d="M0 0 C-0.33 1.65 -0.66 3.3 -1 5 C-2.32 4.67 -3.64 4.34 -5 4 C-5 3.01 -5 2.02 -5 1 C-3 0 -3 0 0 0 Z " fill="#FDF5D5" transform="translate(319,210)"/>
<path d="M0 0 C0.99 0.33 1.98 0.66 3 1 C2.67 2.32 2.34 3.64 2 5 C0.68 5 -0.64 5 -2 5 C-2 3.68 -2 2.36 -2 1 C-1.34 0.67 -0.68 0.34 0 0 Z " fill="#FDF3D9" transform="translate(254,199)"/>
<path d="M0 0 C0.268125 0.5775 0.53625 1.155 0.8125 1.75 C1.93880119 4.06461975 1.93880119 4.06461975 3.6875 6.0625 C4.120625 6.701875 4.55375 7.34125 5 8 C4.67 8.99 4.34 9.98 4 11 C1.29727467 8.12835434 0.05208163 6.69008159 -0.25 2.6875 C-0.1675 1.800625 -0.085 0.91375 0 0 Z " fill="#2F98CF" transform="translate(206,173)"/>
<path d="M0 0 C0.66 0.33 1.32 0.66 2 1 C1.67 1.66 1.34 2.32 1 3 C0.74202425 6.95562822 0.90559811 9.59659693 3 13 C1.68 12.67 0.36 12.34 -1 12 C-1.02698189 10.37509046 -1.04638757 8.75005367 -1.0625 7.125 C-1.07410156 6.22007812 -1.08570313 5.31515625 -1.09765625 4.3828125 C-1 2 -1 2 0 0 Z " fill="#0C2F4F" transform="translate(206,170)"/>
<path d="M0 0 C0.99 0.33 1.98 0.66 3 1 C2.01 2.485 2.01 2.485 1 4 C1 4.66 1 5.32 1 6 C-0.65 6 -2.3 6 -4 6 C-3.0022242 3.00667261 -2.2477975 2.05233685 0 0 Z " fill="#62779B" transform="translate(287,388)"/>
<path d="M0 0 C0.25 2.3125 0.25 2.3125 0 5 C-2 6.8125 -2 6.8125 -4 8 C-4.36780384 3.46375267 -4.36780384 3.46375267 -2.5625 1.1875 C-1 0 -1 0 0 0 Z " fill="#268CD3" transform="translate(326,312)"/>
<path d="M0 0 C0.99 0.99 1.98 1.98 3 3 C2.67 3.66 2.34 4.32 2 5 C1.77377919 6.70363822 1.59111527 8.41328701 1.4375 10.125 C1.35371094 11.03507813 1.26992187 11.94515625 1.18359375 12.8828125 C1.12300781 13.58148438 1.06242188 14.28015625 1 15 C0.67 15 0.34 15 0 15 C0 10.05 0 5.1 0 0 Z " fill="#73B6CD" transform="translate(176,222)"/>
<path d="M0 0 C0 3 0 3 -2.125 5.1875 C-5.41557542 7.2619932 -7.18634321 7.35475877 -11 7 C-10.46375 6.7525 -9.9275 6.505 -9.375 6.25 C-6.10155465 4.52713402 -2.63127385 2.63127385 0 0 Z " fill="#8BCEE7" transform="translate(316,188)"/>
<path d="M0 0 C0.33 1.32 0.66 2.64 1 4 C-1.66666667 4 -4.33333333 4 -7 4 C-3.375 0 -3.375 0 0 0 Z " fill="#F3B261" transform="translate(131,323)"/>
<path d="M0 0 C2.31 0.66 4.62 1.32 7 2 C7 2.99 7 3.98 7 5 C4.03824877 4.38722388 2.61941217 3.74627478 0 2 C0 1.34 0 0.68 0 0 Z " fill="#F5617C" transform="translate(295,178)"/>
<path d="M0 0 C0 0.99 0 1.98 0 3 C-0.99 3.66 -1.98 4.32 -3 5 C-3 4.01 -3 3.02 -3 2 C-4.32 1.67 -5.64 1.34 -7 1 C-4.53721199 -0.231394 -2.7204945 -0.07159196 0 0 Z " fill="#74C5E0" transform="translate(217,167)"/>
<path d="M0 0 C1.65 0 3.3 0 5 0 C5 1.32 5 2.64 5 4 C3.35 3.67 1.7 3.34 0 3 C0 2.01 0 1.02 0 0 Z " fill="#E3F7EA" transform="translate(254,154)"/>
<path d="M0 0 C1.65 1.65 3.3 3.3 5 5 C4.67 5.99 4.34 6.98 4 8 C2.35 6.68 0.7 5.36 -1 4 C-0.67 2.68 -0.34 1.36 0 0 Z " fill="#ECAD64" transform="translate(381,328)"/>
<path d="M0 0 C1.32 0.66 2.64 1.32 4 2 C2.35 3.65 0.7 5.3 -1 7 C-1.04254356 5.00045254 -1.04080783 2.99958364 -1 1 C-0.67 0.67 -0.34 0.34 0 0 Z " fill="#278DD0" transform="translate(314,324)"/>
<path d="M0 0 C0.33 0 0.66 0 1 0 C1.66 2.64 2.32 5.28 3 8 C2.01 8.33 1.02 8.66 0 9 C-1 8 -1 8 -1.125 5.0625 C-1 2 -1 2 0 0 Z " fill="#C69351" transform="translate(248,203)"/>
<path d="M0 0 C0.33 0.99 0.66 1.98 1 3 C-0.8125 6.1875 -0.8125 6.1875 -3 9 C-3.66 9 -4.32 9 -5 9 C-3.7508258 5.54074837 -2.32472205 2.85306797 0 0 Z " fill="#0C2E53" transform="translate(316,327)"/>
<path d="M0 0 C0.33 0.99 0.66 1.98 1 3 C1.66 3 2.32 3 3 3 C4.38232443 4.62626404 5.71937515 6.2925002 7 8 C4 8 4 8 1.8125 6.25 C0 4 0 4 0 0 Z " fill="#E2A066" transform="translate(363,312)"/>
<path d="M0 0 C1.5 1.125 1.5 1.125 3 3 C3.1875 6.1875 3.1875 6.1875 3 9 C2.01 8.67 1.02 8.34 0 8 C0 5.36 0 2.72 0 0 Z " fill="#5BA669" transform="translate(312,273)"/>
<path d="M0 0 C0.33 0.99 0.66 1.98 1 3 C1.66 3 2.32 3 3 3 C3.33 2.34 3.66 1.68 4 1 C4 2.98 4 4.96 4 7 C2.68 6.34 1.36 5.68 0 5 C0 3.35 0 1.7 0 0 Z " fill="#F1AB69" transform="translate(91,234)"/>
<path d="M0 0 C1.32 0 2.64 0 4 0 C3.67 1.65 3.34 3.3 3 5 C2.34 5 1.68 5 1 5 C0.67 3.35 0.34 1.7 0 0 Z " fill="#FCF0E7" transform="translate(190,227)"/>
<path d="M0 0 C2.31 0.33 4.62 0.66 7 1 C7 2.65 7 4.3 7 6 C4.56070254 4.07423885 2.19909405 2.19909405 0 0 Z " fill="#2E2D28" transform="translate(261,197)"/>
</svg>
